<?xml version="1.0" standalone="no"?>
<!DOCTYPE svg PUBLIC "-//W3C//DTD SVG 20010904//EN"
 "http://www.w3.org/TR/2001/REC-SVG-20010904/DTD/svg10.dtd">
<svg version="1.0" xmlns="http://www.w3.org/2000/svg"
 width="800.000000pt" height="800.000000pt" viewBox="0 0 800.000000 800.000000"
 preserveAspectRatio="xMidYMid meet">
<metadata>
Created by potrace 1.11, written by Peter Selinger 2001-2013
</metadata>
<g transform="translate(0.000000,800.000000) scale(0.100000,-0.100000)"
fill="#000000" stroke="none">
<path d="M3839 7996 c-2 -2 -35 -6 -74 -10 -38 -3 -81 -8 -95 -10 -14 -2 -47
-8 -75 -12 -27 -4 -54 -8 -60 -10 -5 -1 -53 -12 -105 -24 -540 -122 -1036
-453 -1323 -885 -163 -245 -274 -551 -303 -835 -9 -92 -12 -1680 -3 -1686 4
-2 20 13 35 34 37 48 221 232 304 303 60 52 206 164 258 199 l22 15 1 530 c0
292 4 550 9 575 4 25 10 59 13 75 31 190 119 386 248 555 458 603 1415 792
2165 429 407 -197 684 -539 774 -956 28 -128 29 -161 30 -724 l0 -485 61 -43
c162 -115 350 -283 496 -444 34 -37 63 -64 65 -60 7 13 2 1614 -5 1663 -4 25
-9 65 -12 89 -37 289 -170 607 -360 859 -272 362 -679 629 -1170 771 -88 25
-233 55 -325 67 -25 3 -56 8 -70 11 -30 6 -495 15 -501 9z"/>
<path d="M4017 5294 c-1 -1 -58 -4 -127 -8 -154 -7 -255 -20 -400 -50 -14 -3
-38 -8 -55 -12 -149 -31 -391 -119 -575 -210 -592 -293 -1060 -809 -1294
-1428 -39 -102 -69 -193 -82 -246 -1 -8 -12 -51 -23 -95 -21 -85 -37 -171 -45
-245 -3 -25 -8 -72 -13 -105 -14 -122 -8 -486 11 -591 2 -11 6 -40 10 -65 10
-70 16 -98 32 -169 9 -36 18 -76 20 -90 3 -14 27 -90 53 -170 101 -302 230
-542 434 -805 93 -120 338 -361 462 -456 315 -240 667 -404 1048 -490 80 -17
118 -24 278 -46 112 -15 527 -9 659 11 87 13 124 19 200 36 327 73 642 208
915 394 159 108 361 282 419 360 74 99 79 245 13 359 -79 134 -267 191 -407
124 -30 -15 -84 -54 -120 -88 -321 -300 -712 -491 -1115 -544 -27 -4 -63 -8
-80 -11 -68 -9 -337 -6 -425 5 -247 32 -457 95 -672 203 -94 47 -283 168 -342
218 -135 115 -203 181 -281 275 -27 33 -53 62 -56 65 -18 15 -153 227 -193
303 -50 94 -53 103 -33 104 6 1 104 27 217 58 113 31 214 58 225 60 11 3 152
40 313 83 l292 79 27 -36 c39 -51 162 -169 184 -176 11 -4 19 -10 19 -14 0
-13 172 -98 245 -121 389 -122 804 16 1040 346 85 118 148 268 161 385 7 65
13 71 80 88 22 5 66 17 99 26 33 8 67 17 75 19 131 34 889 238 916 247 17 5
40 11 50 13 22 5 156 41 199 54 99 30 177 102 209 193 22 61 29 146 15 192 -6
18 -12 41 -14 51 -6 26 -54 176 -65 201 -5 11 -25 59 -45 107 -53 127 -140
293 -196 374 -16 24 -29 45 -29 49 0 3 -13 23 -28 43 -16 20 -48 64 -73 97
-92 125 -287 331 -399 421 -19 16 -37 31 -40 34 -19 19 -141 108 -225 163
-261 170 -595 311 -875 368 -85 18 -95 19 -190 34 -89 14 -394 36 -403 29z
m218 -658 c398 -40 772 -198 1095 -461 72 -59 236 -235 307 -329 75 -100 189
-286 212 -349 8 -21 8 -29 -2 -32 -14 -5 -533 -144 -562 -150 -39 -9 -291 -77
-315 -85 -14 -4 -58 -16 -98 -26 l-72 -18 -32 40 c-188 232 -466 359 -763 348
-49 -2 -101 -6 -115 -9 -14 -3 -41 -8 -60 -11 -103 -19 -271 -101 -377 -185
-66 -53 -167 -165 -186 -206 -5 -13 -13 -23 -17 -23 -10 0 -78 -150 -100 -221
-10 -31 -22 -79 -26 -105 -5 -27 -9 -52 -10 -56 -1 -5 -2 -12 -3 -17 -1 -9
-21 -18 -58 -26 -10 -2 -121 -31 -248 -65 -126 -34 -264 -71 -305 -82 -41 -11
-158 -42 -259 -69 -101 -27 -186 -47 -190 -43 -3 3 -6 96 -5 207 0 187 6 241
38 402 15 77 62 237 85 290 5 11 23 54 40 95 26 62 100 198 154 285 64 103
176 237 290 348 239 232 542 405 860 492 102 28 106 28 177 40 25 4 54 9 65
11 11 2 56 7 100 10 44 4 81 7 82 8 6 5 235 -2 298 -8z"/>
</g>
</svg>
