<?xml version="1.0" encoding="utf-8"?>
<!-- Generator: Adobe Illustrator 16.0.3, SVG Export Plug-In . SVG Version: 6.00 Build 0)  -->
<!DOCTYPE svg PUBLIC "-//W3C//DTD SVG 1.1//EN" "http://www.w3.org/Graphics/SVG/1.1/DTD/svg11.dtd">
<svg version="1.1" id="Layer_1" xmlns="http://www.w3.org/2000/svg" xmlns:xlink="http://www.w3.org/1999/xlink" x="0px" y="0px"
	 width="728.59px" height="560px" viewBox="0 0 728.59 560" style="enable-background:new 0 0 728.59 560;" xml:space="preserve">
<g>
	<g>
		<g id="Background_1_">
			
				<radialGradient id="SVGID_1_" cx="-199.707" cy="615.2813" r="273.354" gradientTransform="matrix(1 0 0 -1 564 836)" gradientUnits="userSpaceOnUse">
				<stop  offset="0.5" style="stop-color:#BCBCBE"/>
				<stop  offset="0.6387" style="stop-color:#B5B7B9"/>
				<stop  offset="0.8641" style="stop-color:#9D9FA2"/>
				<stop  offset="1" style="stop-color:#919395"/>
			</radialGradient>
			<rect x="21.43" y="27.86" style="fill:url(#SVGID_1_);" width="685.73" height="385.72"/>
		</g>
		<g>
			<g>
				<g>
					<path style="fill:#E5E5E4;" d="M488.5,40.36c0,1.97-1.6,3.57-3.57,3.57h-19.64c-1.97,0-3.57-1.6-3.57-3.57V35
						c0-1.97,1.6-3.57,3.57-3.57h19.64c1.97,0,3.57,1.6,3.57,3.57V40.36z"/>
					<g>
						<circle style="fill:#434243;" cx="467.95" cy="37.68" r="1.79"/>
						<circle style="fill:#434243;" cx="482.26" cy="37.68" r="1.79"/>
						<circle style="fill:#434243;" cx="475.11" cy="37.68" r="1.79"/>
					</g>
				</g>
				<g>
					<path style="fill:#434243;" d="M186.71,40.36c0,1.97-1.6,3.57-3.57,3.57h-48.22c-1.97,0-3.57-1.6-3.57-3.57V35
						c0-1.97,1.6-3.57,3.57-3.57h48.22c1.97,0,3.57,1.6,3.57,3.57V40.36z"/>
					
						<line style="fill:none;stroke:#E5E5E4;stroke-width:2.1429;stroke-linecap:round;stroke-miterlimit:10;" x1="139.38" y1="37.68" x2="178.67" y2="37.68"/>
				</g>
				<g>
					<path style="fill:#E5E5E4;" d="M217.06,40.36c0,1.97-1.6,3.57-3.57,3.57h-19.64c-1.97,0-3.57-1.6-3.57-3.57V35
						c0-1.97,1.6-3.57,3.57-3.57h19.64c1.97,0,3.57,1.6,3.57,3.57V40.36z"/>
					
						<line style="fill:none;stroke:#434243;stroke-width:2.1429;stroke-linecap:round;stroke-miterlimit:10;" x1="195.97" y1="37.68" x2="211.38" y2="37.68"/>
				</g>
				<g>
					<path style="fill:#E5E5E4;" d="M308.14,40.36c0,1.97-1.6,3.57-3.57,3.57h-46.43c-1.97,0-3.57-1.6-3.57-3.57V35
						c0-1.97,1.6-3.57,3.57-3.57h46.43c1.97,0,3.57,1.6,3.57,3.57V40.36z"/>
					
						<line style="fill:none;stroke:#434243;stroke-width:2.1429;stroke-linecap:round;stroke-miterlimit:10;" x1="259.71" y1="37.68" x2="303" y2="37.68"/>
				</g>
				<g>
					<path style="fill:#E5E5E4;" d="M250.99,40.36c0,1.97-1.6,3.57-3.57,3.57h-23.21c-1.97,0-3.57-1.6-3.57-3.57V35
						c0-1.97,1.6-3.57,3.57-3.57h23.21c1.97,0,3.57,1.6,3.57,3.57V40.36z"/>
					
						<line style="fill:none;stroke:#434243;stroke-width:2.1429;stroke-linecap:round;stroke-miterlimit:10;" x1="226.27" y1="37.68" x2="245.36" y2="37.68"/>
				</g>
			</g>
		</g>
		<g>
			<defs>
				<path id="SVGID_2_" d="M488.5,370.72c0,1.97-1.6,3.57-3.57,3.57H134.92c-1.97,0-3.57-1.6-3.57-3.57V51.07
					c0-1.97,1.6-3.57,3.57-3.57h350.01c1.97,0,3.57,1.6,3.57,3.57V370.72z"/>
			</defs>
			<clipPath id="SVGID_3_">
				<use xlink:href="#SVGID_2_"  style="overflow:visible;"/>
			</clipPath>
			
				<rect x="24.2" y="27.86" style="clip-path:url(#SVGID_3_);fill:#E5E5E4;stroke:#006BB3;stroke-width:2.5001;stroke-linecap:round;stroke-miterlimit:10;" width="685.73" height="357.15"/>
		</g>
		<g>
			<defs>
				<path id="SVGID_4_" d="M488.5,370.72c0,1.97-1.6,3.57-3.57,3.57H134.92c-1.97,0-3.57-1.6-3.57-3.57V51.07
					c0-1.97,1.6-3.57,3.57-3.57h350.01c1.97,0,3.57,1.6,3.57,3.57V370.72z"/>
			</defs>
			<clipPath id="SVGID_5_">
				<use xlink:href="#SVGID_4_"  style="overflow:visible;"/>
			</clipPath>
			<g style="clip-path:url(#SVGID_5_);">
				<path style="fill:#919395;" d="M147.42,361.1l-1.73,1.01v-1.17c0-0.52-0.42-0.94-0.94-0.94c-0.52,0-0.94,0.42-0.94,0.94v1.17
					l-1.74-1.01l1.47,3.6l-1.47-0.85l2.68,6.56l2.68-6.56l-1.47,0.85L147.42,361.1z"/>
				<path style="fill:#919395;" d="M146.65,358.54h-3.8c-0.41,0-0.74,0.33-0.74,0.74c0,0.41,0.33,0.74,0.74,0.74h0.89
					c0.25-0.27,0.61-0.45,1.01-0.45c0.4,0,0.76,0.17,1.01,0.45h0.89c0.41,0,0.74-0.33,0.74-0.74
					C147.39,358.87,147.05,358.54,146.65,358.54z"/>
			</g>
			<g style="clip-path:url(#SVGID_5_);">
				<g>
					<g>
						
							<line style="fill:none;stroke:#919395;stroke-width:1.4286;stroke-linecap:round;stroke-miterlimit:10;" x1="189.55" y1="369.07" x2="198.48" y2="369.07"/>
						
							<line style="fill:none;stroke:#006BB3;stroke-width:2.5001;stroke-linecap:round;stroke-miterlimit:10;" x1="204.56" y1="369.64" x2="247.32" y2="369.64"/>
					</g>
				</g>
				
					<line style="fill:none;stroke:#434243;stroke-width:2.8572;stroke-linecap:round;stroke-miterlimit:10;" x1="189.91" y1="360.69" x2="290.03" y2="360.69"/>
			</g>
			
				<line style="clip-path:url(#SVGID_5_);fill:none;stroke:#C5C6C6;stroke-width:0.7143;stroke-miterlimit:10;" x1="131.35" y1="354.65" x2="488.5" y2="354.65"/>
			
				<line style="clip-path:url(#SVGID_5_);fill:none;stroke:#C5C6C6;stroke-width:0.7143;stroke-miterlimit:10;" x1="131.35" y1="374.29" x2="488.5" y2="374.29"/>
			<g style="clip-path:url(#SVGID_5_);">
				<circle style="fill:#006BB3;" cx="163.94" cy="364.47" r="5.8"/>
				<circle style="fill:#B31B00;" cx="179.12" cy="364.47" r="5.8"/>
			</g>
			<g style="clip-path:url(#SVGID_5_);">
				<path style="fill:#C5C6C6;" d="M484.93,368.04c0,1.97-1.6,3.57-3.57,3.57h-21.43c-1.97,0-3.57-1.6-3.57-3.57v-7.14
					c0-1.97,1.6-3.57,3.57-3.57h21.43c1.97,0,3.57,1.6,3.57,3.57V368.04z"/>
			</g>
		</g>
		<g>
			<defs>
				<path id="SVGID_6_" d="M488.5,370.72c0,1.97-1.6,3.57-3.57,3.57H134.92c-1.97,0-3.57-1.6-3.57-3.57V51.07
					c0-1.97,1.6-3.57,3.57-3.57h350.01c1.97,0,3.57,1.6,3.57,3.57V370.72z"/>
			</defs>
			<clipPath id="SVGID_7_">
				<use xlink:href="#SVGID_6_"  style="overflow:visible;"/>
			</clipPath>
			<g style="clip-path:url(#SVGID_7_);">
				<g>
					<path style="fill:#919395;" d="M147.42,341.46l-1.73,1.01v-1.17c0-0.52-0.42-0.94-0.94-0.94c-0.52,0-0.94,0.42-0.94,0.94v1.17
						l-1.74-1.01l1.47,3.6l-1.47-0.86l2.68,6.56l2.68-6.56l-1.47,0.86L147.42,341.46z"/>
					<path style="fill:#919395;" d="M146.65,338.9h-3.8c-0.41,0-0.74,0.33-0.74,0.74c0,0.41,0.33,0.74,0.74,0.74h0.89
						c0.25-0.27,0.61-0.45,1.01-0.45c0.4,0,0.76,0.18,1.01,0.45h0.89c0.41,0,0.74-0.33,0.74-0.74
						C147.39,339.23,147.05,338.9,146.65,338.9z"/>
				</g>
				<g>
					<g>
						<g>
							
								<line style="fill:none;stroke:#919395;stroke-width:1.4286;stroke-linecap:round;stroke-miterlimit:10;" x1="189.55" y1="349.43" x2="198.48" y2="349.43"/>
							
								<line style="fill:none;stroke:#006BB3;stroke-width:2.5001;stroke-linecap:round;stroke-miterlimit:10;" x1="204.56" y1="350" x2="222.42" y2="350"/>
						</g>
					</g>
					
						<line style="fill:none;stroke:#434243;stroke-width:2.8572;stroke-linecap:round;stroke-miterlimit:10;" x1="189.91" y1="341.05" x2="270.27" y2="341.05"/>
				</g>
				<line style="fill:none;stroke:#C5C6C6;stroke-width:0.7143;stroke-miterlimit:10;" x1="131.35" y1="335" x2="488.5" y2="335"/>
				
					<line style="fill:none;stroke:#C5C6C6;stroke-width:0.7143;stroke-miterlimit:10;" x1="131.35" y1="354.65" x2="488.5" y2="354.65"/>
				<g>
					<circle style="fill:#006BB3;" cx="163.94" cy="344.83" r="5.8"/>
					<circle style="fill:#B31B00;" cx="179.12" cy="344.83" r="5.8"/>
				</g>
				<g>
					<path style="fill:#C5C6C6;" d="M484.93,348.4c0,1.97-1.6,3.57-3.57,3.57h-21.43c-1.97,0-3.57-1.6-3.57-3.57v-7.14
						c0-1.97,1.6-3.57,3.57-3.57h21.43c1.97,0,3.57,1.6,3.57,3.57V348.4z"/>
				</g>
			</g>
		</g>
		<g>
			<defs>
				<path id="SVGID_8_" d="M488.5,370.72c0,1.97-1.6,3.57-3.57,3.57H134.92c-1.97,0-3.57-1.6-3.57-3.57V51.07
					c0-1.97,1.6-3.57,3.57-3.57h350.01c1.97,0,3.57,1.6,3.57,3.57V370.72z"/>
			</defs>
			<clipPath id="SVGID_9_">
				<use xlink:href="#SVGID_8_"  style="overflow:visible;"/>
			</clipPath>
			<g style="clip-path:url(#SVGID_9_);">
				<g>
					<path style="fill:#919395;" d="M147.42,321.81l-1.73,1.01v-1.17c0-0.52-0.42-0.94-0.94-0.94c-0.52,0-0.94,0.42-0.94,0.94v1.17
						l-1.74-1.01l1.47,3.6l-1.47-0.85l2.68,6.56l2.68-6.56l-1.47,0.85L147.42,321.81z"/>
					<path style="fill:#919395;" d="M146.65,319.25h-3.8c-0.41,0-0.74,0.33-0.74,0.74c0,0.41,0.33,0.74,0.74,0.74h0.89
						c0.25-0.27,0.61-0.45,1.01-0.45c0.4,0,0.76,0.17,1.01,0.45h0.89c0.41,0,0.74-0.33,0.74-0.74
						C147.39,319.58,147.05,319.25,146.65,319.25z"/>
				</g>
				<g>
					<g>
						<g>
							
								<line style="fill:none;stroke:#919395;stroke-width:1.4286;stroke-linecap:round;stroke-miterlimit:10;" x1="189.55" y1="329.78" x2="198.48" y2="329.78"/>
							
								<line style="fill:none;stroke:#006BB3;stroke-width:2.5001;stroke-linecap:round;stroke-miterlimit:10;" x1="204.56" y1="330.36" x2="222.42" y2="330.36"/>
						</g>
					</g>
					
						<line style="fill:none;stroke:#434243;stroke-width:2.8572;stroke-linecap:round;stroke-miterlimit:10;" x1="189.91" y1="321.4" x2="304.73" y2="321.4"/>
				</g>
				
					<line style="fill:none;stroke:#C5C6C6;stroke-width:0.7143;stroke-miterlimit:10;" x1="131.35" y1="315.36" x2="488.5" y2="315.36"/>
				<line style="fill:none;stroke:#C5C6C6;stroke-width:0.7143;stroke-miterlimit:10;" x1="131.35" y1="335" x2="488.5" y2="335"/>
				<g>
					<circle style="fill:#006BB3;" cx="163.94" cy="325.18" r="5.8"/>
					<circle style="fill:#B31B00;" cx="179.12" cy="325.18" r="5.8"/>
				</g>
				<g>
					<path style="fill:#C5C6C6;" d="M484.93,328.75c0,1.97-1.6,3.57-3.57,3.57h-21.43c-1.97,0-3.57-1.6-3.57-3.57v-7.14
						c0-1.97,1.6-3.57,3.57-3.57h21.43c1.97,0,3.57,1.6,3.57,3.57V328.75z"/>
				</g>
			</g>
		</g>
		<g>
			<defs>
				<path id="SVGID_10_" d="M488.5,370.72c0,1.97-1.6,3.57-3.57,3.57H134.92c-1.97,0-3.57-1.6-3.57-3.57V51.07
					c0-1.97,1.6-3.57,3.57-3.57h350.01c1.97,0,3.57,1.6,3.57,3.57V370.72z"/>
			</defs>
			<clipPath id="SVGID_11_">
				<use xlink:href="#SVGID_10_"  style="overflow:visible;"/>
			</clipPath>
			<g style="clip-path:url(#SVGID_11_);">
				<g>
					<path style="fill:#919395;" d="M147.42,302.17l-1.73,1.01V302c0-0.52-0.42-0.94-0.94-0.94c-0.52,0-0.94,0.42-0.94,0.94v1.18
						l-1.74-1.01l1.47,3.6l-1.47-0.85l2.68,6.56l2.68-6.56l-1.47,0.85L147.42,302.17z"/>
					<path style="fill:#919395;" d="M146.65,299.61h-3.8c-0.41,0-0.74,0.33-0.74,0.74c0,0.41,0.33,0.74,0.74,0.74h0.89
						c0.25-0.27,0.61-0.45,1.01-0.45c0.4,0,0.76,0.18,1.01,0.45h0.89c0.41,0,0.74-0.33,0.74-0.74
						C147.39,299.94,147.05,299.61,146.65,299.61z"/>
				</g>
				<g>
					<g>
						<g>
							
								<line style="fill:none;stroke:#919395;stroke-width:1.4286;stroke-linecap:round;stroke-miterlimit:10;" x1="189.55" y1="310.14" x2="198.48" y2="310.14"/>
							
								<line style="fill:none;stroke:#006BB3;stroke-width:2.5001;stroke-linecap:round;stroke-miterlimit:10;" x1="204.56" y1="310.71" x2="250.99" y2="310.71"/>
						</g>
					</g>
					
						<line style="fill:none;stroke:#434243;stroke-width:2.8572;stroke-linecap:round;stroke-miterlimit:10;" x1="189.91" y1="301.76" x2="382.05" y2="301.76"/>
				</g>
				
					<line style="fill:none;stroke:#C5C6C6;stroke-width:0.7143;stroke-miterlimit:10;" x1="131.35" y1="295.72" x2="488.5" y2="295.72"/>
				
					<line style="fill:none;stroke:#C5C6C6;stroke-width:0.7143;stroke-miterlimit:10;" x1="131.35" y1="315.36" x2="488.5" y2="315.36"/>
				<g>
					<circle style="fill:#006BB3;" cx="163.94" cy="305.54" r="5.8"/>
					<circle style="fill:#B31B00;" cx="179.12" cy="305.54" r="5.8"/>
				</g>
				<g>
					<path style="fill:#C5C6C6;" d="M484.93,309.11c0,1.97-1.6,3.57-3.57,3.57h-21.43c-1.97,0-3.57-1.6-3.57-3.57v-7.14
						c0-1.97,1.6-3.57,3.57-3.57h21.43c1.97,0,3.57,1.6,3.57,3.57V309.11z"/>
				</g>
			</g>
		</g>
		<g>
			<defs>
				<path id="SVGID_12_" d="M488.5,370.72c0,1.97-1.6,3.57-3.57,3.57H134.92c-1.97,0-3.57-1.6-3.57-3.57V51.07
					c0-1.97,1.6-3.57,3.57-3.57h350.01c1.97,0,3.57,1.6,3.57,3.57V370.72z"/>
			</defs>
			<clipPath id="SVGID_13_">
				<use xlink:href="#SVGID_12_"  style="overflow:visible;"/>
			</clipPath>
			<g style="clip-path:url(#SVGID_13_);">
				<g>
					<path style="fill:#919395;" d="M147.42,282.53l-1.73,1.01v-1.18c0-0.52-0.42-0.94-0.94-0.94c-0.52,0-0.94,0.42-0.94,0.94v1.18
						l-1.74-1.01l1.47,3.6l-1.47-0.85l2.68,6.56l2.68-6.56l-1.47,0.85L147.42,282.53z"/>
					<path style="fill:#919395;" d="M146.65,279.96h-3.8c-0.41,0-0.74,0.33-0.74,0.74c0,0.41,0.33,0.74,0.74,0.74h0.89
						c0.25-0.27,0.61-0.45,1.01-0.45c0.4,0,0.76,0.18,1.01,0.45h0.89c0.41,0,0.74-0.33,0.74-0.74
						C147.39,280.3,147.05,279.96,146.65,279.96z"/>
				</g>
				<g>
					<g>
						<g>
							
								<line style="fill:none;stroke:#919395;stroke-width:1.4286;stroke-linecap:round;stroke-miterlimit:10;" x1="189.55" y1="290.5" x2="198.48" y2="290.5"/>
							
								<line style="fill:none;stroke:#006BB3;stroke-width:2.5001;stroke-linecap:round;stroke-miterlimit:10;" x1="204.56" y1="291.07" x2="233.3" y2="291.07"/>
						</g>
					</g>
					
						<line style="fill:none;stroke:#434243;stroke-width:2.8572;stroke-linecap:round;stroke-miterlimit:10;" x1="189.91" y1="282.12" x2="238.35" y2="282.12"/>
				</g>
				
					<line style="fill:none;stroke:#C5C6C6;stroke-width:0.7143;stroke-miterlimit:10;" x1="131.35" y1="276.08" x2="488.5" y2="276.08"/>
				
					<line style="fill:none;stroke:#C5C6C6;stroke-width:0.7143;stroke-miterlimit:10;" x1="131.35" y1="295.72" x2="488.5" y2="295.72"/>
				<g>
					<circle style="fill:#006BB3;" cx="163.94" cy="285.9" r="5.8"/>
					<circle style="fill:#B31B00;" cx="179.12" cy="285.9" r="5.8"/>
				</g>
				<g>
					<path style="fill:#C5C6C6;" d="M484.93,289.47c0,1.97-1.6,3.57-3.57,3.57h-21.43c-1.97,0-3.57-1.6-3.57-3.57v-7.14
						c0-1.97,1.6-3.57,3.57-3.57h21.43c1.97,0,3.57,1.6,3.57,3.57V289.47z"/>
				</g>
			</g>
		</g>
		<g>
			<defs>
				<path id="SVGID_14_" d="M488.5,370.72c0,1.97-1.6,3.57-3.57,3.57H134.92c-1.97,0-3.57-1.6-3.57-3.57V51.07
					c0-1.97,1.6-3.57,3.57-3.57h350.01c1.97,0,3.57,1.6,3.57,3.57V370.72z"/>
			</defs>
			<clipPath id="SVGID_15_">
				<use xlink:href="#SVGID_14_"  style="overflow:visible;"/>
			</clipPath>
			<g style="clip-path:url(#SVGID_15_);">
				<g>
					<path style="fill:#919395;" d="M147.42,262.88l-1.73,1.01v-1.17c0-0.52-0.42-0.94-0.94-0.94c-0.52,0-0.94,0.42-0.94,0.94v1.17
						l-1.74-1.01l1.47,3.6l-1.47-0.85l2.68,6.56l2.68-6.56l-1.47,0.85L147.42,262.88z"/>
					<path style="fill:#919395;" d="M146.65,260.32h-3.8c-0.41,0-0.74,0.33-0.74,0.74c0,0.41,0.33,0.74,0.74,0.74h0.89
						c0.25-0.27,0.61-0.45,1.01-0.45c0.4,0,0.76,0.18,1.01,0.45h0.89c0.41,0,0.74-0.33,0.74-0.74
						C147.39,260.66,147.05,260.32,146.65,260.32z"/>
				</g>
				<g>
					<g>
						<g>
							
								<line style="fill:none;stroke:#919395;stroke-width:1.4286;stroke-linecap:round;stroke-miterlimit:10;" x1="189.55" y1="270.86" x2="198.48" y2="270.86"/>
							
								<line style="fill:none;stroke:#006BB3;stroke-width:2.5001;stroke-linecap:round;stroke-miterlimit:10;" x1="204.56" y1="271.43" x2="248.85" y2="271.43"/>
						</g>
					</g>
					
						<line style="fill:none;stroke:#434243;stroke-width:2.8572;stroke-linecap:round;stroke-miterlimit:10;" x1="189.91" y1="262.48" x2="354.31" y2="262.48"/>
				</g>
				
					<line style="fill:none;stroke:#C5C6C6;stroke-width:0.7143;stroke-miterlimit:10;" x1="131.35" y1="256.43" x2="488.5" y2="256.43"/>
				
					<line style="fill:none;stroke:#C5C6C6;stroke-width:0.7143;stroke-miterlimit:10;" x1="131.35" y1="276.08" x2="488.5" y2="276.08"/>
				<g>
					<circle style="fill:#006BB3;" cx="163.94" cy="266.25" r="5.8"/>
					<circle style="fill:#B31B00;" cx="179.12" cy="266.25" r="5.8"/>
				</g>
				<g>
					<path style="fill:#C5C6C6;" d="M484.93,269.83c0,1.97-1.6,3.57-3.57,3.57h-21.43c-1.97,0-3.57-1.6-3.57-3.57v-7.14
						c0-1.97,1.6-3.57,3.57-3.57h21.43c1.97,0,3.57,1.6,3.57,3.57V269.83z"/>
				</g>
			</g>
		</g>
		<g>
			<defs>
				<path id="SVGID_16_" d="M488.5,370.72c0,1.97-1.6,3.57-3.57,3.57H134.92c-1.97,0-3.57-1.6-3.57-3.57V51.07
					c0-1.97,1.6-3.57,3.57-3.57h350.01c1.97,0,3.57,1.6,3.57,3.57V370.72z"/>
			</defs>
			<clipPath id="SVGID_17_">
				<use xlink:href="#SVGID_16_"  style="overflow:visible;"/>
			</clipPath>
			<g style="clip-path:url(#SVGID_17_);">
				<g>
					<path style="fill:#919395;" d="M147.42,243.24l-1.73,1.01v-1.17c0-0.52-0.42-0.94-0.94-0.94c-0.52,0-0.94,0.42-0.94,0.94v1.17
						l-1.74-1.01l1.47,3.6l-1.47-0.85l2.68,6.56l2.68-6.56l-1.47,0.85L147.42,243.24z"/>
					<path style="fill:#919395;" d="M146.65,240.68h-3.8c-0.41,0-0.74,0.33-0.74,0.74c0,0.41,0.33,0.74,0.74,0.74h0.89
						c0.25-0.27,0.61-0.45,1.01-0.45c0.4,0,0.76,0.18,1.01,0.45h0.89c0.41,0,0.74-0.33,0.74-0.74
						C147.39,241.01,147.05,240.68,146.65,240.68z"/>
				</g>
				<g>
					<g>
						<g>
							
								<line style="fill:none;stroke:#919395;stroke-width:1.4286;stroke-linecap:round;stroke-miterlimit:10;" x1="189.55" y1="251.21" x2="198.48" y2="251.21"/>
							
								<line style="fill:none;stroke:#006BB3;stroke-width:2.5001;stroke-linecap:round;stroke-miterlimit:10;" x1="204.56" y1="251.78" x2="226.71" y2="251.78"/>
						</g>
					</g>
					
						<line style="fill:none;stroke:#434243;stroke-width:2.8572;stroke-linecap:round;stroke-miterlimit:10;" x1="189.91" y1="242.83" x2="270.27" y2="242.83"/>
				</g>
				
					<line style="fill:none;stroke:#C5C6C6;stroke-width:0.7143;stroke-miterlimit:10;" x1="131.35" y1="236.79" x2="488.5" y2="236.79"/>
				
					<line style="fill:none;stroke:#C5C6C6;stroke-width:0.7143;stroke-miterlimit:10;" x1="131.35" y1="256.43" x2="488.5" y2="256.43"/>
				<g>
					<path style="fill:#006BB3;" d="M163.94,240.81c3.21,0,5.81,2.6,5.81,5.81c0,3.2-2.6,5.8-5.81,5.8c-3.2,0-5.8-2.6-5.8-5.8
						C158.13,243.41,160.73,240.81,163.94,240.81z"/>
					<circle style="fill:#B31B00;" cx="179.12" cy="246.61" r="5.8"/>
				</g>
				<g>
					<path style="fill:#C5C6C6;" d="M484.93,250.18c0,1.97-1.6,3.57-3.57,3.57h-21.43c-1.97,0-3.57-1.6-3.57-3.57v-7.14
						c0-1.97,1.6-3.57,3.57-3.57h21.43c1.97,0,3.57,1.6,3.57,3.57V250.18z"/>
				</g>
			</g>
		</g>
		<g>
			<defs>
				<path id="SVGID_18_" d="M488.5,370.72c0,1.97-1.6,3.57-3.57,3.57H134.92c-1.97,0-3.57-1.6-3.57-3.57V51.07
					c0-1.97,1.6-3.57,3.57-3.57h350.01c1.97,0,3.57,1.6,3.57,3.57V370.72z"/>
			</defs>
			<clipPath id="SVGID_19_">
				<use xlink:href="#SVGID_18_"  style="overflow:visible;"/>
			</clipPath>
			<g style="clip-path:url(#SVGID_19_);">
				<g>
					<path style="fill:#919395;" d="M147.42,223.6l-1.73,1.01v-1.18c0-0.52-0.42-0.94-0.94-0.94c-0.52,0-0.94,0.42-0.94,0.94v1.18
						l-1.74-1.01l1.47,3.6l-1.47-0.85l2.68,6.56l2.68-6.56l-1.47,0.85L147.42,223.6z"/>
					<path style="fill:#919395;" d="M146.65,221.04h-3.8c-0.41,0-0.74,0.33-0.74,0.74c0,0.41,0.33,0.74,0.74,0.74h0.89
						c0.25-0.27,0.61-0.45,1.01-0.45c0.4,0,0.76,0.17,1.01,0.45h0.89c0.41,0,0.74-0.33,0.74-0.74
						C147.39,221.37,147.05,221.04,146.65,221.04z"/>
				</g>
				<g>
					<g>
						<g>
							
								<line style="fill:none;stroke:#919395;stroke-width:1.4286;stroke-linecap:round;stroke-miterlimit:10;" x1="189.55" y1="231.57" x2="198.48" y2="231.57"/>
							
								<line style="fill:none;stroke:#006BB3;stroke-width:2.5001;stroke-linecap:round;stroke-miterlimit:10;" x1="204.56" y1="232.14" x2="238.35" y2="232.14"/>
						</g>
					</g>
					
						<line style="fill:none;stroke:#434243;stroke-width:2.8572;stroke-linecap:round;stroke-miterlimit:10;" x1="189.91" y1="223.19" x2="293.39" y2="223.19"/>
				</g>
				
					<line style="fill:none;stroke:#C5C6C6;stroke-width:0.7143;stroke-miterlimit:10;" x1="131.35" y1="217.15" x2="488.5" y2="217.15"/>
				
					<line style="fill:none;stroke:#C5C6C6;stroke-width:0.7143;stroke-miterlimit:10;" x1="131.35" y1="236.79" x2="488.5" y2="236.79"/>
				<g>
					<circle style="fill:#006BB3;" cx="163.94" cy="226.97" r="5.8"/>
					<circle style="fill:#B31B00;" cx="179.12" cy="226.97" r="5.8"/>
				</g>
				<g>
					<path style="fill:#C5C6C6;" d="M484.93,230.54c0,1.97-1.6,3.57-3.57,3.57h-21.43c-1.97,0-3.57-1.6-3.57-3.57v-7.14
						c0-1.97,1.6-3.57,3.57-3.57h21.43c1.97,0,3.57,1.6,3.57,3.57V230.54z"/>
				</g>
			</g>
		</g>
		<g>
			<defs>
				<path id="SVGID_20_" d="M488.5,370.72c0,1.97-1.6,3.57-3.57,3.57H134.92c-1.97,0-3.57-1.6-3.57-3.57V51.07
					c0-1.97,1.6-3.57,3.57-3.57h350.01c1.97,0,3.57,1.6,3.57,3.57V370.72z"/>
			</defs>
			<clipPath id="SVGID_21_">
				<use xlink:href="#SVGID_20_"  style="overflow:visible;"/>
			</clipPath>
			<g style="clip-path:url(#SVGID_21_);">
				<g>
					<path style="fill:#919395;" d="M147.42,203.95l-1.73,1.01v-1.17c0-0.52-0.42-0.94-0.94-0.94c-0.52,0-0.94,0.42-0.94,0.94v1.17
						l-1.74-1.01l1.47,3.6l-1.47-0.85l2.68,6.56l2.68-6.56l-1.47,0.85L147.42,203.95z"/>
					<path style="fill:#919395;" d="M146.65,201.39h-3.8c-0.41,0-0.74,0.33-0.74,0.74c0,0.41,0.33,0.74,0.74,0.74h0.89
						c0.25-0.27,0.61-0.45,1.01-0.45c0.4,0,0.76,0.18,1.01,0.45h0.89c0.41,0,0.74-0.33,0.74-0.74
						C147.39,201.73,147.05,201.39,146.65,201.39z"/>
				</g>
				<g>
					<g>
						<g>
							
								<line style="fill:none;stroke:#919395;stroke-width:1.4286;stroke-linecap:round;stroke-miterlimit:10;" x1="189.55" y1="211.92" x2="198.48" y2="211.92"/>
							
								<line style="fill:none;stroke:#006BB3;stroke-width:2.5001;stroke-linecap:round;stroke-miterlimit:10;" x1="204.56" y1="212.5" x2="238.35" y2="212.5"/>
						</g>
					</g>
					
						<line style="fill:none;stroke:#434243;stroke-width:2.8572;stroke-linecap:round;stroke-miterlimit:10;" x1="189.91" y1="203.55" x2="285.41" y2="203.55"/>
				</g>
				
					<line style="fill:none;stroke:#C5C6C6;stroke-width:0.7143;stroke-miterlimit:10;" x1="131.35" y1="197.5" x2="488.5" y2="197.5"/>
				
					<line style="fill:none;stroke:#C5C6C6;stroke-width:0.7143;stroke-miterlimit:10;" x1="131.35" y1="217.15" x2="488.5" y2="217.15"/>
				<g>
					<circle style="fill:#006BB3;" cx="163.94" cy="207.33" r="5.8"/>
					<circle style="fill:#B31B00;" cx="179.12" cy="207.33" r="5.8"/>
				</g>
				<g>
					<path style="fill:#C5C6C6;" d="M484.93,210.9c0,1.97-1.6,3.57-3.57,3.57h-21.43c-1.97,0-3.57-1.6-3.57-3.57v-7.14
						c0-1.97,1.6-3.57,3.57-3.57h21.43c1.97,0,3.57,1.6,3.57,3.57V210.9z"/>
				</g>
			</g>
		</g>
		<g>
			<defs>
				<path id="SVGID_22_" d="M488.5,370.72c0,1.97-1.6,3.57-3.57,3.57H134.92c-1.97,0-3.57-1.6-3.57-3.57V51.07
					c0-1.97,1.6-3.57,3.57-3.57h350.01c1.97,0,3.57,1.6,3.57,3.57V370.72z"/>
			</defs>
			<clipPath id="SVGID_23_">
				<use xlink:href="#SVGID_22_"  style="overflow:visible;"/>
			</clipPath>
			<g style="clip-path:url(#SVGID_23_);">
				<path style="fill:#919395;" d="M147.42,184.31l-1.73,1.01v-1.18c0-0.52-0.42-0.94-0.94-0.94c-0.52,0-0.94,0.42-0.94,0.94v1.18
					l-1.74-1.01l1.47,3.6l-1.47-0.85l2.68,6.56l2.68-6.56l-1.47,0.85L147.42,184.31z"/>
				<path style="fill:#919395;" d="M146.65,181.75h-3.8c-0.41,0-0.74,0.33-0.74,0.74c0,0.41,0.33,0.74,0.74,0.74h0.89
					c0.25-0.28,0.61-0.45,1.01-0.45c0.4,0,0.76,0.18,1.01,0.45h0.89c0.41,0,0.74-0.33,0.74-0.74
					C147.39,182.08,147.05,181.75,146.65,181.75z"/>
			</g>
			<g style="clip-path:url(#SVGID_23_);">
				<g>
					<g>
						
							<line style="fill:none;stroke:#919395;stroke-width:1.4286;stroke-linecap:round;stroke-miterlimit:10;" x1="189.55" y1="192.28" x2="198.48" y2="192.28"/>
						
							<line style="fill:none;stroke:#006BB3;stroke-width:2.5001;stroke-linecap:round;stroke-miterlimit:10;" x1="204.56" y1="192.85" x2="222.42" y2="192.85"/>
					</g>
				</g>
				
					<line style="fill:none;stroke:#434243;stroke-width:2.8572;stroke-linecap:round;stroke-miterlimit:10;" x1="189.91" y1="183.9" x2="328.69" y2="183.9"/>
			</g>
			
				<line style="clip-path:url(#SVGID_23_);fill:none;stroke:#C5C6C6;stroke-width:0.7143;stroke-miterlimit:10;" x1="131.35" y1="177.86" x2="488.5" y2="177.86"/>
			
				<line style="clip-path:url(#SVGID_23_);fill:none;stroke:#C5C6C6;stroke-width:0.7143;stroke-miterlimit:10;" x1="131.35" y1="197.5" x2="488.5" y2="197.5"/>
			<g style="clip-path:url(#SVGID_23_);">
				<circle style="fill:#006BB3;" cx="163.94" cy="187.68" r="5.8"/>
				<circle style="fill:#B31B00;" cx="179.12" cy="187.68" r="5.8"/>
			</g>
			<g style="clip-path:url(#SVGID_23_);">
				<path style="fill:#C5C6C6;" d="M484.93,191.25c0,1.97-1.6,3.57-3.57,3.57h-21.43c-1.97,0-3.57-1.6-3.57-3.57v-7.14
					c0-1.97,1.6-3.57,3.57-3.57h21.43c1.97,0,3.57,1.6,3.57,3.57V191.25z"/>
			</g>
		</g>
		<g>
			<defs>
				<path id="SVGID_24_" d="M488.5,370.72c0,1.97-1.6,3.57-3.57,3.57H134.92c-1.97,0-3.57-1.6-3.57-3.57V51.07
					c0-1.97,1.6-3.57,3.57-3.57h350.01c1.97,0,3.57,1.6,3.57,3.57V370.72z"/>
			</defs>
			<clipPath id="SVGID_25_">
				<use xlink:href="#SVGID_24_"  style="overflow:visible;"/>
			</clipPath>
			<g style="clip-path:url(#SVGID_25_);">
				<path style="fill:#919395;" d="M147.42,164.67l-1.73,1.01v-1.17c0-0.52-0.42-0.94-0.94-0.94c-0.52,0-0.94,0.42-0.94,0.94v1.17
					l-1.74-1.01l1.47,3.6l-1.47-0.85l2.68,6.56l2.68-6.56l-1.47,0.85L147.42,164.67z"/>
				<path style="fill:#919395;" d="M146.65,162.11h-3.8c-0.41,0-0.74,0.33-0.74,0.74c0,0.41,0.33,0.74,0.74,0.74h0.89
					c0.25-0.27,0.61-0.45,1.01-0.45c0.4,0,0.76,0.17,1.01,0.45h0.89c0.41,0,0.74-0.33,0.74-0.74
					C147.39,162.44,147.05,162.11,146.65,162.11z"/>
			</g>
			<g style="clip-path:url(#SVGID_25_);">
				<g>
					<g>
						
							<line style="fill:none;stroke:#919395;stroke-width:1.4286;stroke-linecap:round;stroke-miterlimit:10;" x1="189.55" y1="172.64" x2="198.48" y2="172.64"/>
						
							<line style="fill:none;stroke:#006BB3;stroke-width:2.5001;stroke-linecap:round;stroke-miterlimit:10;" x1="204.56" y1="173.21" x2="222.42" y2="173.21"/>
					</g>
				</g>
				
					<line style="fill:none;stroke:#434243;stroke-width:2.8572;stroke-linecap:round;stroke-miterlimit:10;" x1="189.91" y1="164.26" x2="270.27" y2="164.26"/>
			</g>
			
				<line style="clip-path:url(#SVGID_25_);fill:none;stroke:#C5C6C6;stroke-width:0.7143;stroke-miterlimit:10;" x1="131.35" y1="158.22" x2="488.5" y2="158.22"/>
			
				<line style="clip-path:url(#SVGID_25_);fill:none;stroke:#C5C6C6;stroke-width:0.7143;stroke-miterlimit:10;" x1="131.35" y1="177.86" x2="488.5" y2="177.86"/>
			<g style="clip-path:url(#SVGID_25_);">
				<circle style="fill:#006BB3;" cx="163.94" cy="168.04" r="5.8"/>
				<circle style="fill:#B31B00;" cx="179.12" cy="168.04" r="5.8"/>
			</g>
			<g style="clip-path:url(#SVGID_25_);">
				<path style="fill:#C5C6C6;" d="M484.93,171.61c0,1.97-1.6,3.57-3.57,3.57h-21.43c-1.97,0-3.57-1.6-3.57-3.57v-7.14
					c0-1.97,1.6-3.57,3.57-3.57h21.43c1.97,0,3.57,1.6,3.57,3.57V171.61z"/>
			</g>
		</g>
		<g>
			<defs>
				<path id="SVGID_26_" d="M488.5,370.72c0,1.97-1.6,3.57-3.57,3.57H134.92c-1.97,0-3.57-1.6-3.57-3.57V51.07
					c0-1.97,1.6-3.57,3.57-3.57h350.01c1.97,0,3.57,1.6,3.57,3.57V370.72z"/>
			</defs>
			<clipPath id="SVGID_27_">
				<use xlink:href="#SVGID_26_"  style="overflow:visible;"/>
			</clipPath>
			<g style="clip-path:url(#SVGID_27_);">
				<g>
					<path style="fill:#919395;" d="M147.42,145.02l-1.73,1.01v-1.18c0-0.52-0.42-0.94-0.94-0.94c-0.52,0-0.94,0.42-0.94,0.94v1.18
						l-1.74-1.01l1.47,3.6l-1.47-0.85l2.68,6.56l2.68-6.56l-1.47,0.85L147.42,145.02z"/>
					<path style="fill:#919395;" d="M146.65,142.46h-3.8c-0.41,0-0.74,0.33-0.74,0.74c0,0.41,0.33,0.74,0.74,0.74h0.89
						c0.25-0.27,0.61-0.45,1.01-0.45c0.4,0,0.76,0.17,1.01,0.45h0.89c0.41,0,0.74-0.33,0.74-0.74
						C147.39,142.8,147.05,142.46,146.65,142.46z"/>
				</g>
				<g>
					<g>
						<g>
							
								<line style="fill:none;stroke:#919395;stroke-width:1.4286;stroke-linecap:round;stroke-miterlimit:10;" x1="189.55" y1="152.99" x2="198.48" y2="152.99"/>
							
								<line style="fill:none;stroke:#006BB3;stroke-width:2.5001;stroke-linecap:round;stroke-miterlimit:10;" x1="204.56" y1="153.57" x2="238.35" y2="153.57"/>
						</g>
					</g>
					
						<line style="fill:none;stroke:#434243;stroke-width:2.8572;stroke-linecap:round;stroke-miterlimit:10;" x1="189.91" y1="144.62" x2="300.53" y2="144.62"/>
				</g>
				
					<line style="fill:none;stroke:#C5C6C6;stroke-width:0.7143;stroke-miterlimit:10;" x1="131.35" y1="138.57" x2="488.5" y2="138.57"/>
				
					<line style="fill:none;stroke:#C5C6C6;stroke-width:0.7143;stroke-miterlimit:10;" x1="131.35" y1="158.22" x2="488.5" y2="158.22"/>
				<g>
					<circle style="fill:#006BB3;" cx="163.94" cy="148.4" r="5.8"/>
					<circle style="fill:#B31B00;" cx="179.12" cy="148.4" r="5.8"/>
				</g>
				<g>
					<path style="fill:#C5C6C6;" d="M484.93,151.97c0,1.97-1.6,3.57-3.57,3.57h-21.43c-1.97,0-3.57-1.6-3.57-3.57v-7.14
						c0-1.97,1.6-3.57,3.57-3.57h21.43c1.97,0,3.57,1.6,3.57,3.57V151.97z"/>
				</g>
			</g>
		</g>
		<g>
			<defs>
				<path id="SVGID_28_" d="M488.5,370.72c0,1.97-1.6,3.57-3.57,3.57H134.92c-1.97,0-3.57-1.6-3.57-3.57V51.07
					c0-1.97,1.6-3.57,3.57-3.57h350.01c1.97,0,3.57,1.6,3.57,3.57V370.72z"/>
			</defs>
			<clipPath id="SVGID_29_">
				<use xlink:href="#SVGID_28_"  style="overflow:visible;"/>
			</clipPath>
			<g style="clip-path:url(#SVGID_29_);">
				<g>
					<path style="fill:#919395;" d="M147.42,125.38l-1.73,1.01v-1.18c0-0.52-0.42-0.94-0.94-0.94c-0.52,0-0.94,0.42-0.94,0.94v1.18
						l-1.74-1.01l1.47,3.6l-1.47-0.85l2.68,6.56l2.68-6.56l-1.47,0.85L147.42,125.38z"/>
					<path style="fill:#919395;" d="M146.65,122.82h-3.8c-0.41,0-0.74,0.33-0.74,0.74c0,0.41,0.33,0.74,0.74,0.74h0.89
						c0.25-0.28,0.61-0.45,1.01-0.45c0.4,0,0.76,0.18,1.01,0.45h0.89c0.41,0,0.74-0.33,0.74-0.74
						C147.39,123.15,147.05,122.82,146.65,122.82z"/>
				</g>
				<g>
					<g>
						<g>
							
								<line style="fill:none;stroke:#919395;stroke-width:1.4286;stroke-linecap:round;stroke-miterlimit:10;" x1="189.55" y1="133.35" x2="198.48" y2="133.35"/>
							
								<line style="fill:none;stroke:#006BB3;stroke-width:2.5001;stroke-linecap:round;stroke-miterlimit:10;" x1="204.56" y1="133.92" x2="222.42" y2="133.92"/>
						</g>
					</g>
					
						<line style="fill:none;stroke:#434243;stroke-width:2.8572;stroke-linecap:round;stroke-miterlimit:10;" x1="189.91" y1="124.97" x2="256.42" y2="124.97"/>
				</g>
				
					<line style="fill:none;stroke:#C5C6C6;stroke-width:0.7143;stroke-miterlimit:10;" x1="131.35" y1="118.93" x2="488.5" y2="118.93"/>
				
					<line style="fill:none;stroke:#C5C6C6;stroke-width:0.7143;stroke-miterlimit:10;" x1="131.35" y1="138.57" x2="488.5" y2="138.57"/>
				<g>
					<circle style="fill:#006BB3;" cx="163.94" cy="128.75" r="5.8"/>
					<circle style="fill:#B31B00;" cx="179.12" cy="128.75" r="5.8"/>
				</g>
				<g>
					<path style="fill:#C5C6C6;" d="M484.93,132.32c0,1.97-1.6,3.57-3.57,3.57h-21.43c-1.97,0-3.57-1.6-3.57-3.57v-7.14
						c0-1.97,1.6-3.57,3.57-3.57h21.43c1.97,0,3.57,1.6,3.57,3.57V132.32z"/>
				</g>
			</g>
		</g>
		<g>
			<defs>
				<path id="SVGID_30_" d="M488.5,370.72c0,1.97-1.6,3.57-3.57,3.57H134.92c-1.97,0-3.57-1.6-3.57-3.57V51.07
					c0-1.97,1.6-3.57,3.57-3.57h350.01c1.97,0,3.57,1.6,3.57,3.57V370.72z"/>
			</defs>
			<clipPath id="SVGID_31_">
				<use xlink:href="#SVGID_30_"  style="overflow:visible;"/>
			</clipPath>
			<g style="clip-path:url(#SVGID_31_);">
				<g>
					<path style="fill:#919395;" d="M147.42,105.74l-1.73,1.01v-1.18c0-0.52-0.42-0.94-0.94-0.94c-0.52,0-0.94,0.42-0.94,0.94v1.18
						l-1.74-1.01l1.47,3.6l-1.47-0.85l2.68,6.56l2.68-6.56l-1.47,0.85L147.42,105.74z"/>
					<path style="fill:#919395;" d="M146.65,103.18h-3.8c-0.41,0-0.74,0.33-0.74,0.74c0,0.41,0.33,0.74,0.74,0.74h0.89
						c0.25-0.28,0.61-0.45,1.01-0.45c0.4,0,0.76,0.17,1.01,0.45h0.89c0.41,0,0.74-0.33,0.74-0.74
						C147.39,103.51,147.05,103.18,146.65,103.18z"/>
				</g>
				<g>
					<g>
						<g>
							
								<line style="fill:none;stroke:#919395;stroke-width:1.4286;stroke-linecap:round;stroke-miterlimit:10;" x1="189.55" y1="113.71" x2="198.48" y2="113.71"/>
							
								<line style="fill:none;stroke:#006BB3;stroke-width:2.5001;stroke-linecap:round;stroke-miterlimit:10;" x1="204.56" y1="114.28" x2="233.3" y2="114.28"/>
						</g>
					</g>
					
						<line style="fill:none;stroke:#434243;stroke-width:2.8572;stroke-linecap:round;stroke-miterlimit:10;" x1="189.91" y1="105.33" x2="297.59" y2="105.33"/>
				</g>
				
					<line style="fill:none;stroke:#C5C6C6;stroke-width:0.7143;stroke-miterlimit:10;" x1="131.35" y1="99.29" x2="488.5" y2="99.29"/>
				
					<line style="fill:none;stroke:#C5C6C6;stroke-width:0.7143;stroke-miterlimit:10;" x1="131.35" y1="118.93" x2="488.5" y2="118.93"/>
				<g>
					<circle style="fill:#006BB3;" cx="163.94" cy="109.11" r="5.8"/>
					<circle style="fill:#B31B00;" cx="179.12" cy="109.11" r="5.8"/>
				</g>
				<g>
					<path style="fill:#C5C6C6;" d="M484.93,112.68c0,1.97-1.6,3.57-3.57,3.57h-21.43c-1.97,0-3.57-1.6-3.57-3.57v-7.14
						c0-1.97,1.6-3.57,3.57-3.57h21.43c1.97,0,3.57,1.6,3.57,3.57V112.68z"/>
				</g>
			</g>
		</g>
		<g>
			<defs>
				<path id="SVGID_32_" d="M488.5,370.72c0,1.97-1.6,3.57-3.57,3.57H134.92c-1.97,0-3.57-1.6-3.57-3.57V51.07
					c0-1.97,1.6-3.57,3.57-3.57h350.01c1.97,0,3.57,1.6,3.57,3.57V370.72z"/>
			</defs>
			<clipPath id="SVGID_33_">
				<use xlink:href="#SVGID_32_"  style="overflow:visible;"/>
			</clipPath>
			<g style="clip-path:url(#SVGID_33_);">
				<path style="fill:#919395;" d="M147.42,86.09l-1.73,1.01v-1.18c0-0.52-0.42-0.94-0.94-0.94c-0.52,0-0.94,0.42-0.94,0.94v1.18
					l-1.74-1.01l1.47,3.6l-1.47-0.85l2.68,6.56l2.68-6.56l-1.47,0.85L147.42,86.09z"/>
				<path style="fill:#919395;" d="M146.65,83.53h-3.8c-0.41,0-0.74,0.33-0.74,0.74c0,0.41,0.33,0.74,0.74,0.74h0.89
					c0.25-0.27,0.61-0.45,1.01-0.45c0.4,0,0.76,0.17,1.01,0.45h0.89c0.41,0,0.74-0.33,0.74-0.74
					C147.39,83.87,147.05,83.53,146.65,83.53z"/>
			</g>
			<g style="clip-path:url(#SVGID_33_);">
				<g>
					<g>
						
							<line style="fill:none;stroke:#919395;stroke-width:1.4286;stroke-linecap:round;stroke-miterlimit:10;" x1="189.55" y1="94.07" x2="198.48" y2="94.07"/>
						
							<line style="fill:none;stroke:#006BB3;stroke-width:2.5001;stroke-linecap:round;stroke-miterlimit:10;" x1="204.56" y1="94.64" x2="235.81" y2="94.64"/>
					</g>
				</g>
				
					<line style="fill:none;stroke:#434243;stroke-width:2.8572;stroke-linecap:round;stroke-miterlimit:10;" x1="189.91" y1="85.69" x2="270.27" y2="85.69"/>
			</g>
			
				<line style="clip-path:url(#SVGID_33_);fill:none;stroke:#C5C6C6;stroke-width:0.7143;stroke-miterlimit:10;" x1="131.35" y1="79.64" x2="488.5" y2="79.64"/>
			
				<line style="clip-path:url(#SVGID_33_);fill:none;stroke:#C5C6C6;stroke-width:0.7143;stroke-miterlimit:10;" x1="131.35" y1="99.29" x2="488.5" y2="99.29"/>
			<g style="clip-path:url(#SVGID_33_);">
				<circle style="fill:#006BB3;" cx="163.94" cy="89.47" r="5.8"/>
				<circle style="fill:#B31B00;" cx="179.12" cy="89.47" r="5.8"/>
			</g>
			<g style="clip-path:url(#SVGID_33_);">
				<path style="fill:#C5C6C6;" d="M484.93,93.04c0,1.97-1.6,3.57-3.57,3.57h-21.43c-1.97,0-3.57-1.6-3.57-3.57V85.9
					c0-1.97,1.6-3.57,3.57-3.57h21.43c1.97,0,3.57,1.6,3.57,3.57V93.04z"/>
			</g>
		</g>
		<g>
			<defs>
				<path id="SVGID_34_" d="M488.5,370.72c0,1.97-1.6,3.57-3.57,3.57H134.92c-1.97,0-3.57-1.6-3.57-3.57V51.07
					c0-1.97,1.6-3.57,3.57-3.57h350.01c1.97,0,3.57,1.6,3.57,3.57V370.72z"/>
			</defs>
			<clipPath id="SVGID_35_">
				<use xlink:href="#SVGID_34_"  style="overflow:visible;"/>
			</clipPath>
			<path style="clip-path:url(#SVGID_35_);fill:#919395;" d="M147.42,66.45l-1.73,1.01v-1.18c0-0.52-0.42-0.94-0.94-0.94
				c-0.52,0-0.94,0.42-0.94,0.94v1.18l-1.74-1.01l1.47,3.6l-1.47-0.85l2.68,6.56l2.68-6.56l-1.47,0.85L147.42,66.45z"/>
			<path style="clip-path:url(#SVGID_35_);fill:#919395;" d="M146.65,63.89h-3.8c-0.41,0-0.74,0.33-0.74,0.74
				c0,0.41,0.33,0.74,0.74,0.74h0.89c0.25-0.28,0.61-0.45,1.01-0.45c0.4,0,0.76,0.18,1.01,0.45h0.89c0.41,0,0.74-0.33,0.74-0.74
				C147.39,64.22,147.05,63.89,146.65,63.89z"/>
			
				<line style="clip-path:url(#SVGID_35_);fill:none;stroke:#919395;stroke-width:1.4286;stroke-linecap:round;stroke-miterlimit:10;" x1="189.55" y1="74.42" x2="198.48" y2="74.42"/>
			
				<line style="clip-path:url(#SVGID_35_);fill:#006BB3;stroke:#006BB3;stroke-width:2.5001;stroke-linecap:round;stroke-miterlimit:10;" x1="204.56" y1="74.99" x2="248.85" y2="74.99"/>
			
				<line style="clip-path:url(#SVGID_35_);fill:none;stroke:#434243;stroke-width:2.8572;stroke-linecap:round;stroke-miterlimit:10;" x1="189.91" y1="66.04" x2="362.72" y2="66.04"/>
			
				<line style="clip-path:url(#SVGID_35_);fill:none;stroke:#C5C6C6;stroke-width:0.7143;stroke-miterlimit:10;" x1="131.35" y1="60" x2="488.5" y2="60"/>
			
				<line style="clip-path:url(#SVGID_35_);fill:none;stroke:#C5C6C6;stroke-width:0.7143;stroke-miterlimit:10;" x1="131.35" y1="79.64" x2="488.5" y2="79.64"/>
			<circle style="clip-path:url(#SVGID_35_);fill:#006BB3;" cx="163.94" cy="69.82" r="5.8"/>
			<circle style="clip-path:url(#SVGID_35_);fill:#B31B00;" cx="179.12" cy="69.82" r="5.8"/>
			<path style="clip-path:url(#SVGID_35_);fill:#C5C6C6;" d="M484.93,73.39c0,1.97-1.6,3.57-3.57,3.57h-21.43
				c-1.97,0-3.57-1.6-3.57-3.57v-7.14c0-1.97,1.6-3.57,3.57-3.57h21.43c1.97,0,3.57,1.6,3.57,3.57V73.39z"/>
		</g>
		<g>
			<defs>
				<path id="SVGID_36_" d="M488.5,370.72c0,1.97-1.6,3.57-3.57,3.57H134.92c-1.97,0-3.57-1.6-3.57-3.57V51.07
					c0-1.97,1.6-3.57,3.57-3.57h350.01c1.97,0,3.57,1.6,3.57,3.57V370.72z"/>
			</defs>
			<clipPath id="SVGID_37_">
				<use xlink:href="#SVGID_36_"  style="overflow:visible;"/>
			</clipPath>
			<g style="clip-path:url(#SVGID_37_);">
				<g>
					<path style="fill:#919395;" d="M147.42,46.81l-1.73,1.01v-1.18c0-0.52-0.42-0.94-0.94-0.94c-0.52,0-0.94,0.42-0.94,0.94v1.18
						l-1.74-1.01l1.47,3.6l-1.47-0.86l2.68,6.56l2.68-6.56l-1.47,0.85L147.42,46.81z"/>
					<path style="fill:#919395;" d="M146.65,44.25h-3.8c-0.41,0-0.74,0.33-0.74,0.74c0,0.41,0.33,0.74,0.74,0.74h0.89
						c0.25-0.28,0.61-0.45,1.01-0.45c0.4,0,0.76,0.17,1.01,0.45h0.89c0.41,0,0.74-0.33,0.74-0.74
						C147.39,44.58,147.05,44.25,146.65,44.25z"/>
				</g>
				<g>
					<g>
						<g>
							
								<line style="fill:none;stroke:#919395;stroke-width:1.4286;stroke-linecap:round;stroke-miterlimit:10;" x1="189.55" y1="54.78" x2="198.48" y2="54.78"/>
							
								<line style="fill:#006BB3;stroke:#006BB3;stroke-width:2.5001;stroke-linecap:round;stroke-miterlimit:10;" x1="204.56" y1="55.35" x2="222.42" y2="55.35"/>
						</g>
					</g>
					
						<line style="fill:none;stroke:#434243;stroke-width:2.8572;stroke-linecap:round;stroke-miterlimit:10;" x1="189.91" y1="46.4" x2="270.27" y2="46.4"/>
				</g>
				
					<line style="fill:none;stroke:#C5C6C6;stroke-width:0.7143;stroke-miterlimit:10;" x1="131.35" y1="40.36" x2="488.5" y2="40.36"/>
				<line style="fill:none;stroke:#C5C6C6;stroke-width:0.7143;stroke-miterlimit:10;" x1="131.35" y1="60" x2="488.5" y2="60"/>
				<g>
					<circle style="fill:#006BB3;" cx="163.94" cy="50.18" r="5.8"/>
					<circle style="fill:#B12224;" cx="179.12" cy="50.18" r="5.8"/>
				</g>
				<g>
					<path style="fill:#C5C6C6;" d="M484.93,53.75c0,1.97-1.6,3.57-3.57,3.57h-21.43c-1.97,0-3.57-1.6-3.57-3.57v-7.14
						c0-1.97,1.6-3.57,3.57-3.57h21.43c1.97,0,3.57,1.6,3.57,3.57V53.75z"/>
				</g>
			</g>
		</g>
		<g>
			<defs>
				<path id="SVGID_38_" d="M488.5,413.58H131.35v-26.79c0-1.97,1.6-3.57,3.57-3.57h350.01c1.97,0,3.57,1.6,3.57,3.57V413.58z"/>
			</defs>
			<clipPath id="SVGID_39_">
				<use xlink:href="#SVGID_38_"  style="overflow:visible;"/>
			</clipPath>
			<rect x="24.2" y="27.86" style="clip-path:url(#SVGID_39_);fill:#E5E5E4;" width="685.73" height="385.72"/>
		</g>
		<g>
			<defs>
				<path id="SVGID_40_" d="M488.5,413.58H131.35v-26.79c0-1.97,1.6-3.57,3.57-3.57h350.01c1.97,0,3.57,1.6,3.57,3.57V413.58z"/>
			</defs>
			<clipPath id="SVGID_41_">
				<use xlink:href="#SVGID_40_"  style="overflow:visible;"/>
			</clipPath>
			<path style="clip-path:url(#SVGID_41_);fill:#C5C6C6;" d="M452.78,405.54c0,1.97-1.6,3.57-3.57,3.57H170.63
				c-1.97,0-3.57-1.6-3.57-3.57v-14.29c0-1.97,1.6-3.57,3.57-3.57h278.58c1.97,0,3.57,1.6,3.57,3.57V405.54z"/>
		</g>
		<g>
			<g>
				<defs>
					<path id="SVGID_42_" d="M618.86,47.5c1.97,0,3.57,1.6,3.57,3.57v82.15c0,1.97-1.6,3.57-3.57,3.57H501
						c-1.97,0-3.57-1.6-3.57-3.57V51.07c0-1.97,1.6-3.57,3.57-3.57H618.86z"/>
				</defs>
				<clipPath id="SVGID_43_">
					<use xlink:href="#SVGID_42_"  style="overflow:visible;"/>
				</clipPath>
			</g>
		</g>
		<g>
			<defs>
				<path id="SVGID_44_" d="M618.86,47.5c1.97,0,3.57,1.6,3.57,3.57v82.15c0,1.97-1.6,3.57-3.57,3.57H501
					c-1.97,0-3.57-1.6-3.57-3.57V51.07c0-1.97,1.6-3.57,3.57-3.57H618.86z"/>
			</defs>
			<clipPath id="SVGID_45_">
				<use xlink:href="#SVGID_44_"  style="overflow:visible;"/>
			</clipPath>
			<rect x="24.2" y="27.86" style="clip-path:url(#SVGID_45_);fill:#E5E5E4;" width="685.73" height="357.15"/>
		</g>
		<g id="Profile_1_">
			<defs>
				<path id="SVGID_46_" d="M618.86,47.5c1.97,0,3.57,1.6,3.57,3.57v82.15c0,1.97-1.6,3.57-3.57,3.57H501
					c-1.97,0-3.57-1.6-3.57-3.57V51.07c0-1.97,1.6-3.57,3.57-3.57H618.86z"/>
			</defs>
			<clipPath id="SVGID_47_">
				<use xlink:href="#SVGID_46_"  style="overflow:visible;"/>
			</clipPath>
			<g style="clip-path:url(#SVGID_47_);">
				<g>
					<defs>
						<path id="SVGID_48_" d="M558.14,103.04c0,2.86-2.32,5.18-5.18,5.18h-41.43c-2.86,0-5.18-2.32-5.18-5.18V61.61
							c0-2.86,2.32-5.18,5.18-5.18h41.43c2.86,0,5.18,2.32,5.18,5.18V103.04z"/>
					</defs>
					<clipPath id="SVGID_49_">
						<use xlink:href="#SVGID_48_"  style="overflow:visible;"/>
					</clipPath>
					<g style="clip-path:url(#SVGID_49_);">
						<g>
							<path style="fill:#E5BA24;" d="M524.56,70.66c0,8.01,4.98,14.5,11.14,14.5c6.15,0,11.14-6.49,11.14-14.5
								c0-8.01,0-13.36-11.14-13.36C524.56,57.3,524.56,62.65,524.56,70.66z"/>
							<path style="fill:#006BB3;" d="M535.71,87.1c-2.52,0.02-4.34-0.23-6.72-1.95c-2.56,2.33-6.82,1.85-9.06,4.87
								c-2.92,3.91-3.1,11.14-3,15.44c0.05,1.89,15.05,6.17,18.78,6.17c4.18,0,18.73-4.28,18.77-6.17c0.1-4.29-0.08-11.52-3-15.44
								c-2.25-3.02-6.51-2.54-9.06-4.87C540.04,86.87,538.22,87.13,535.71,87.1z"/>
						</g>
					</g>
				</g>
				<g>
					<defs>
						<path id="SVGID_50_" d="M618.86,47.5c1.97,0,3.57,1.6,3.57,3.57v82.15c0,1.97-1.6,3.57-3.57,3.57H501
							c-1.97,0-3.57-1.6-3.57-3.57V51.07c0-1.97,1.6-3.57,3.57-3.57H618.86z"/>
					</defs>
					<clipPath id="SVGID_51_">
						<use xlink:href="#SVGID_50_"  style="overflow:visible;"/>
					</clipPath>
					<g style="clip-path:url(#SVGID_51_);">
						<path style="fill:#FFFFFF;" d="M613.5,101.31c0,3.82-3.09,6.9-6.9,6.9h-37.98c-3.81,0-6.9-3.09-6.9-6.9V63.33
							c0-3.81,3.09-6.9,6.9-6.9h37.98c3.81,0,6.9,3.09,6.9,6.9V101.31z"/>
						<g>
							<g>
								<rect x="593.95" y="56.43" style="fill:#434243;" width="1.4" height="1.4"/>
								<rect x="596.76" y="56.43" style="fill:#434243;" width="1.4" height="1.4"/>
								<rect x="600.96" y="56.43" style="fill:#434243;" width="1.4" height="1.4"/>
								<polygon style="fill:#434243;" points="577.13,57.83 575.73,57.83 574.33,57.83 572.92,57.83 572.92,59.23 574.33,59.23 
									574.33,60.63 572.92,60.63 572.92,62.04 574.33,62.04 575.73,62.04 575.73,60.63 575.73,59.23 577.13,59.23 578.53,59.23 
									578.53,57.83 								"/>
								<rect x="582.74" y="57.83" style="fill:#434243;" width="1.4" height="1.4"/>
								<rect x="584.14" y="59.23" style="fill:#434243;" width="1.4" height="1.4"/>
								<polygon style="fill:#434243;" points="607.97,59.23 606.57,59.23 606.57,60.63 606.57,62.04 606.57,63.44 607.97,63.44 
									609.37,63.44 610.77,63.44 610.77,62.04 610.77,60.63 610.77,59.23 609.37,59.23 								"/>
								<polygon style="fill:#434243;" points="582.74,60.63 581.34,60.63 579.94,60.63 579.94,59.23 578.53,59.23 578.53,60.63 
									577.13,60.63 577.13,62.04 578.53,62.04 578.53,63.44 579.94,63.44 581.34,63.44 581.34,62.04 582.74,62.04 584.14,62.04 
									584.14,60.63 								"/>
								<rect x="585.54" y="60.63" style="fill:#434243;" width="1.4" height="1.4"/>
								<polygon style="fill:#434243;" points="588.35,62.04 588.35,63.44 589.75,63.44 591.15,63.44 592.55,63.44 592.55,62.04 
									591.15,62.04 589.75,62.04 589.75,60.63 591.15,60.63 592.55,60.63 593.95,60.63 595.36,60.63 595.36,59.23 593.95,59.23 
									593.95,57.83 592.55,57.83 592.55,56.43 591.15,56.43 591.15,57.83 589.75,57.83 589.75,59.23 588.35,59.23 588.35,57.83 
									589.75,57.83 589.75,56.43 588.35,56.43 586.94,56.43 586.94,57.83 586.94,59.23 586.94,60.63 588.35,60.63 								"/>
								<polygon style="fill:#434243;" points="567.32,63.44 568.72,63.44 568.72,62.04 568.72,60.63 568.72,59.23 567.32,59.23 
									565.92,59.23 564.51,59.23 564.51,60.63 564.51,62.04 564.51,63.44 565.92,63.44 								"/>
								<rect x="593.95" y="62.04" style="fill:#434243;" width="1.4" height="1.4"/>
								<polygon style="fill:#434243;" points="599.56,62.04 599.56,60.63 600.96,60.63 600.96,59.23 600.96,57.83 599.56,57.83 
									599.56,59.23 598.16,59.23 598.16,60.63 596.76,60.63 596.76,62.04 598.16,62.04 598.16,63.44 599.56,63.44 								"/>
								<rect x="600.96" y="62.04" style="fill:#434243;" width="1.4" height="1.4"/>
								<path style="fill:#434243;" d="M613.38,62.04c-0.09-0.49-0.24-0.96-0.42-1.4c-0.21-0.49-0.47-0.95-0.78-1.37v1.37v1.4v1.4
									v1.4h-1.4h-1.4h-1.4h-1.4h-1.4v-1.4v-1.4v-1.4v-1.4v-1.4h1.4h1.4h1.4h1.4c-0.43-0.33-0.9-0.6-1.4-0.82
									c-0.44-0.19-0.92-0.35-1.4-0.45c-0.44-0.09-0.9-0.14-1.37-0.14h-0.03h-1.4h-1.4v1.4v1.4v1.4v1.4v1.4v1.4v1.4h1.4h1.4h1.4
									h1.4h1.4h1.4h1.33v-1.4v-1.4v-0.1C613.5,62.89,613.46,62.46,613.38,62.04z"/>
								<polygon style="fill:#434243;" points="577.13,63.44 575.73,63.44 575.73,64.84 575.73,66.24 577.13,66.24 577.13,64.84 
																	"/>
								<rect x="599.56" y="63.44" style="fill:#434243;" width="1.41" height="1.4"/>
								<path style="fill:#434243;" d="M564.51,66.24h1.4h1.4h1.4h1.4h1.4v-1.4v-1.4v-1.4v-1.4v-1.4v-1.4v-1.4h-1.4h-1.4h-0.11
									c-0.44,0-0.88,0.04-1.3,0.13c-0.49,0.09-0.96,0.23-1.4,0.42c-0.5,0.21-0.97,0.48-1.4,0.8c-0.02,0.02-0.04,0.04-0.06,0.06
									h0.06h1.4h1.4h1.4h1.4v1.4v1.4v1.4v1.4v1.4h-1.4h-1.4h-1.4h-1.4h-1.4v-1.4v-1.4v-1.4v-1.4v-0.07
									c-0.02,0.02-0.03,0.04-0.05,0.07c-0.32,0.43-0.59,0.9-0.8,1.4c-0.19,0.45-0.33,0.91-0.43,1.4c-0.08,0.42-0.12,0.85-0.12,1.3
									v0.11v1.4v1.4h1.4L564.51,66.24L564.51,66.24z"/>
								<polygon style="fill:#434243;" points="574.33,64.84 574.33,63.44 572.92,63.44 572.92,64.84 572.92,66.24 574.33,66.24 
																	"/>
								<rect x="581.34" y="64.84" style="fill:#434243;" width="1.4" height="1.4"/>
								<polygon style="fill:#434243;" points="585.54,64.84 586.94,64.84 586.94,66.24 588.35,66.24 588.35,64.84 588.35,63.44 
									586.94,63.44 585.54,63.44 585.54,62.04 584.14,62.04 584.14,63.44 582.74,63.44 582.74,64.84 584.14,64.84 584.14,66.24 
									584.14,67.64 585.54,67.64 585.54,66.24 								"/>
								<polygon style="fill:#434243;" points="599.56,66.24 599.56,64.84 598.16,64.84 598.16,66.24 598.16,67.64 599.56,67.64 
									599.56,69.04 600.96,69.04 600.96,70.45 602.36,70.45 602.36,69.04 603.77,69.04 603.77,67.64 602.36,67.64 602.36,66.24 
									602.36,64.84 600.96,64.84 600.96,66.24 								"/>
								<polygon style="fill:#434243;" points="567.32,67.64 565.92,67.64 564.51,67.64 563.12,67.64 561.72,67.64 561.72,69.04 
									561.72,70.45 561.72,71.85 563.12,71.85 563.12,70.45 563.12,69.04 564.51,69.04 565.92,69.04 567.32,69.04 568.72,69.04 
									568.72,67.64 								"/>
								<rect x="607.97" y="67.64" style="fill:#434243;" width="1.4" height="1.4"/>
								<rect x="610.77" y="67.64" style="fill:#434243;" width="1.4" height="1.4"/>
								<path style="fill:#434243;" d="M586.94,70.45v1.4v1.4h1.4v-1.4v-1.4h1.4h1.4h1.4h1.4h1.4h1.41v-1.4h1.4v-1.4h-1.4v-1.4v-1.4
									h1.4v-1.4h-1.4h-1.41v1.4v1.4v1.4v1.4h-1.4v-1.4v-1.4v-1.4v-1.4h-1.4v1.4v1.4h-1.4v-1.4h-1.4v1.4v1.4v1.4h-1.4h-1.4v-1.4
									h-1.4v1.4h-1.4v1.4h1.4H586.94z M591.15,67.64h1.4v1.4h-1.4V67.64z"/>
								<polygon style="fill:#434243;" points="606.57,69.04 606.57,67.64 605.17,67.64 605.17,69.04 605.17,70.45 606.57,70.45 
																	"/>
								<polygon style="fill:#434243;" points="599.56,71.85 599.56,73.25 598.16,73.25 596.76,73.25 595.36,73.25 595.36,71.85 
									593.95,71.85 593.95,73.25 592.55,73.25 592.55,74.65 593.95,74.65 593.95,76.05 595.36,76.05 595.36,74.65 596.76,74.65 
									598.16,74.65 598.16,76.05 599.56,76.05 599.56,74.65 600.96,74.65 600.96,73.25 600.96,71.85 600.96,70.45 599.56,70.45 
																	"/>
								<rect x="602.36" y="70.45" style="fill:#434243;" width="1.4" height="1.4"/>
								<polygon style="fill:#434243;" points="610.77,70.45 610.77,71.85 612.17,71.85 613.5,71.85 613.5,70.45 612.17,70.45 
																	"/>
								<rect x="591.15" y="71.85" style="fill:#434243;" width="1.4" height="1.4"/>
								<rect x="570.13" y="73.25" style="fill:#434243;" width="1.4" height="1.4"/>
								<polygon style="fill:#434243;" points="602.36,73.25 602.36,74.65 603.77,74.65 605.17,74.65 605.17,73.25 603.77,73.25 
																	"/>
								<polygon style="fill:#434243;" points="610.77,73.25 609.37,73.25 609.37,71.85 607.97,71.85 607.97,73.25 606.57,73.25 
									606.57,74.65 607.97,74.65 607.97,76.05 607.97,77.46 609.37,77.46 609.37,76.05 609.37,74.65 610.77,74.65 610.77,76.05 
									610.77,77.46 610.77,78.86 612.17,78.86 612.17,80.26 613.5,80.26 613.5,78.86 613.5,77.46 613.5,76.05 612.17,76.05 
									612.17,74.65 613.5,74.65 613.5,73.25 612.17,73.25 								"/>
								<path style="fill:#434243;" d="M578.53,76.05v-1.4h1.4h1.4v1.4h1.4v-1.4h1.4v-1.4v-1.4v-1.4h-1.4h-1.4v1.4v1.4h-1.4v-1.4
									v-1.4v-1.4h1.4h1.4v-1.4h-1.4h-1.4v-1.4v-1.4h-1.4v1.4h-1.4v1.4h-1.4h-1.4h-1.4h-1.4h-1.4v1.4h1.4v1.4h-1.4v-1.4h-1.4v1.4
									h-1.4h-1.4v1.4h1.4v1.4h-1.4v1.4h-1.4v1.4h1.4h1.4v1.4v1.4h1.4v-1.4v-1.4h1.4v-1.4h-1.4v-1.4v-1.4h1.4h1.4v1.4h1.4h1.4v-1.4
									h-1.4v-1.4h1.4v1.4h1.4h1.4v1.4h-1.4h-1.4v1.4h-1.4h-1.4v1.4h-1.4v1.4h1.4h1.4h1.4h1.4h1.4v-1.4H578.53z M575.73,70.45v-1.4
									h1.4v1.4H575.73z"/>
								<polygon style="fill:#434243;" points="588.35,74.65 586.94,74.65 586.94,73.25 585.54,73.25 585.54,74.65 585.54,76.05 
									584.14,76.05 582.74,76.05 582.74,77.46 582.74,78.86 582.74,80.26 584.14,80.26 584.14,78.86 585.54,78.86 585.54,77.46 
									586.94,77.46 586.94,76.05 588.35,76.05 589.75,76.05 589.75,74.65 								"/>
								<polygon style="fill:#434243;" points="592.55,74.65 591.15,74.65 591.15,76.05 589.75,76.05 589.75,77.46 588.35,77.46 
									588.35,78.86 589.75,78.86 591.15,78.86 592.55,78.86 593.95,78.86 595.36,78.86 596.76,78.86 596.76,77.46 595.36,77.46 
									593.95,77.46 593.95,76.05 592.55,76.05 								"/>
								<polygon style="fill:#434243;" points="564.51,76.05 563.12,76.05 563.12,74.65 561.72,74.65 561.72,76.05 561.72,77.46 
									563.12,77.46 563.12,78.86 564.51,78.86 564.51,77.46 								"/>
								<polygon style="fill:#434243;" points="578.53,76.05 578.53,77.46 579.94,77.46 581.34,77.46 581.34,76.05 579.94,76.05 
																	"/>
								<polygon style="fill:#434243;" points="600.96,77.46 600.96,78.86 602.36,78.86 603.77,78.86 603.77,77.46 603.77,76.05 
									602.36,76.05 600.96,76.05 599.56,76.05 599.56,77.46 								"/>
								<rect x="605.17" y="76.05" style="fill:#434243;" width="1.4" height="1.4"/>
								<rect x="577.13" y="77.46" style="fill:#434243;" width="1.4" height="1.4"/>
								<rect x="564.51" y="78.86" style="fill:#434243;" width="1.4" height="1.4"/>
								<polygon style="fill:#434243;" points="570.13,80.26 571.53,80.26 571.53,78.86 570.13,78.86 568.72,78.86 568.72,80.26 
																	"/>
								<rect x="575.73" y="78.86" style="fill:#434243;" width="1.4" height="1.4"/>
								<rect x="579.94" y="78.86" style="fill:#434243;" width="1.4" height="1.4"/>
								<rect x="585.54" y="78.86" style="fill:#434243;" width="1.4" height="1.4"/>
								<polygon style="fill:#434243;" points="598.16,80.26 599.56,80.26 599.56,78.86 598.16,78.86 596.76,78.86 596.76,80.26 
																	"/>
								<polygon style="fill:#434243;" points="607.97,78.86 607.97,77.46 606.57,77.46 606.57,78.86 605.17,78.86 603.77,78.86 
									603.77,80.26 605.17,80.26 605.17,81.66 606.57,81.66 606.57,80.26 607.97,80.26 607.97,81.66 609.37,81.66 609.37,80.26 
									610.77,80.26 610.77,78.86 609.37,78.86 								"/>
								<rect x="584.14" y="80.26" style="fill:#434243;" width="1.4" height="1.4"/>
								<rect x="593.95" y="80.26" style="fill:#434243;" width="1.4" height="1.4"/>
								<rect x="600.96" y="80.26" style="fill:#434243;" width="1.4" height="1.4"/>
								<polygon style="fill:#434243;" points="564.51,81.66 564.51,80.26 563.12,80.26 561.72,80.26 561.72,81.66 563.12,81.66 
									563.12,83.06 564.51,83.06 								"/>
								<polygon style="fill:#434243;" points="570.13,81.66 568.72,81.66 568.72,80.26 567.32,80.26 567.32,81.66 567.32,83.06 
									567.32,84.46 565.92,84.46 565.92,85.87 567.32,85.87 567.32,87.27 567.32,88.67 568.72,88.67 568.72,87.27 568.72,85.87 
									570.13,85.87 571.53,85.87 571.53,84.46 570.13,84.46 570.13,83.06 571.53,83.06 572.92,83.06 572.92,81.66 574.33,81.66 
									574.33,80.26 574.33,78.86 572.92,78.86 572.92,80.26 571.53,80.26 571.53,81.66 								"/>
								<rect x="575.73" y="81.66" style="fill:#434243;" width="1.4" height="1.4"/>
								<rect x="585.54" y="81.66" style="fill:#434243;" width="1.4" height="1.4"/>
								<polygon style="fill:#434243;" points="603.77,83.06 603.77,84.46 602.36,84.46 602.36,85.87 603.77,85.87 605.17,85.87 
									605.17,84.46 606.57,84.46 606.57,85.87 607.97,85.87 607.97,87.27 607.97,88.67 609.37,88.67 610.77,88.67 612.17,88.67 
									612.17,90.07 612.17,91.47 613.5,91.47 613.5,90.07 613.5,88.67 613.5,87.27 612.17,87.27 610.77,87.27 609.37,87.27 
									609.37,85.87 610.77,85.87 610.77,84.46 609.37,84.46 607.97,84.46 607.97,83.06 606.57,83.06 605.17,83.06 605.17,81.66 
									603.77,81.66 								"/>
								<polygon style="fill:#434243;" points="610.77,81.66 610.77,83.06 612.17,83.06 612.17,84.46 613.5,84.46 613.5,83.06 
									613.5,81.66 612.17,81.66 								"/>
								<polygon style="fill:#434243;" points="563.12,84.46 563.12,83.06 561.72,83.06 561.72,84.46 561.72,85.87 563.12,85.87 
									564.51,85.87 564.51,84.46 								"/>
								<rect x="572.92" y="84.46" style="fill:#434243;" width="1.41" height="1.4"/>
								<polygon style="fill:#434243;" points="586.94,85.87 586.94,87.27 586.94,88.67 586.94,90.07 588.35,90.07 588.35,88.67 
									588.35,87.27 589.75,87.27 589.75,88.67 591.15,88.67 591.15,87.27 591.15,85.87 589.75,85.87 589.75,84.46 591.15,84.46 
									592.55,84.46 592.55,83.06 592.55,81.66 592.55,80.26 591.15,80.26 589.75,80.26 588.35,80.26 588.35,81.66 589.75,81.66 
									591.15,81.66 591.15,83.06 589.75,83.06 588.35,83.06 588.35,84.46 586.94,84.46 585.54,84.46 585.54,85.87 								"/>
								<rect x="592.55" y="84.46" style="fill:#434243;" width="1.4" height="1.4"/>
								<polygon style="fill:#434243;" points="564.51,87.27 563.12,87.27 561.72,87.27 561.72,88.67 561.72,90.07 561.72,91.47 
									561.72,92.87 561.72,94.28 561.72,95.68 561.72,97.08 563.12,97.08 563.12,95.68 563.12,94.28 563.12,92.87 564.51,92.87 
									564.51,91.47 564.51,90.07 563.12,90.07 563.12,88.67 564.51,88.67 565.92,88.67 565.92,87.27 565.92,85.87 564.51,85.87 
																	"/>
								<polygon style="fill:#434243;" points="579.94,87.27 581.34,87.27 581.34,85.87 582.74,85.87 584.14,85.87 584.14,84.46 
									585.54,84.46 585.54,83.06 584.14,83.06 584.14,81.66 582.74,81.66 582.74,83.06 582.74,84.46 581.34,84.46 579.94,84.46 
									579.94,83.06 579.94,81.66 579.94,80.26 578.53,80.26 577.13,80.26 577.13,81.66 578.53,81.66 578.53,83.06 578.53,84.46 
									578.53,85.87 577.13,85.87 577.13,87.27 578.53,87.27 								"/>
								<polygon style="fill:#434243;" points="595.36,87.27 595.36,88.67 596.76,88.67 598.16,88.67 598.16,87.27 596.76,87.27 
									596.76,85.87 598.16,85.87 598.16,87.27 599.56,87.27 599.56,85.87 599.56,84.46 600.96,84.46 600.96,83.06 600.96,81.66 
									599.56,81.66 598.16,81.66 598.16,83.06 598.16,84.46 596.76,84.46 596.76,83.06 596.76,81.66 595.36,81.66 595.36,83.06 
									595.36,84.46 595.36,85.87 593.95,85.87 593.95,87.27 								"/>
								<path style="fill:#434243;" d="M605.17,87.27v1.4h-1.4h-1.4v-1.4v-1.4h-1.4v1.4h-1.4v1.4h1.4v1.4h-1.4h-1.4h-1.4h-1.4h-1.4
									h-1.4v1.4h-1.4h-1.4v-1.4h-1.4v1.4h-1.4v1.4v1.4h1.4v-1.4h1.4v1.4h-1.4v1.4h-1.4h-1.4v1.4h1.4v1.4v1.4v1.4h1.4h1.4h1.4h1.4
									v1.4h-1.4h-1.4h-1.4v1.4h1.4h1.4v1.4v1.4h1.4v-1.4h1.4v-1.4h1.4v-1.4h1.4v1.4h-1.4v1.4v1.4v1.32h1.4h1.4v-1.33h-1.4v-1.4
									h1.4h1.4v1.4h1.4h1.4v1.33h1.4h1.4h1.4v-1.33v-1.4v-1.4h1.4v-1.4h1.4v1.4h1.4v-1.4v-1.4h-1.4h-1.4v-1.4v-1.4v-1.4h1.4v1.4
									v1.4h1.4v1.4h1.4v-1.4h1.33v-1.4v-1.4h-1.33v1.4h-1.4v-1.4v-1.4h-1.4h-1.4h-1.4v-1.4h-1.4v-1.4h-1.4h-1.4v1.4h1.4v1.4h-1.4
									h-1.4v-1.4v-1.4h-1.4v1.4h-1.4v1.4h-1.4v1.4v1.4v1.4h1.4v1.4h-1.4v-1.4h-1.4v1.4h-1.4v-1.4h-1.4h-1.4v-1.4h1.4h1.4h1.4v-1.4
									h-1.4v-1.4h1.4h1.4v-1.4h-1.4h-1.4v-1.4h1.4h1.4v-1.4h1.4v1.4h1.4v-1.4h1.4v1.4h1.4v-1.4h1.4h1.4v-1.4h1.4v-1.4v-1.4v-1.4
									h-1.4V87.27z M603.77,97.08h1.4h1.4v1.4v1.4v1.4h-1.4h-1.4h-1.4v-1.4v-1.4v-1.4H603.77z M598.16,98.48v-1.4h1.4v1.4h1.41
									v1.4h-1.41v-1.4H598.16z M599.56,102.68h1.41h1.4v1.4h1.4h1.4v1.4h-1.4h-1.4h-1.4v-1.4h-1.41h-1.4v-1.4H599.56z
									 M589.75,99.88h-1.4v-1.4h1.4V99.88z M592.55,97.08h-1.4h-1.4v-1.4h1.4h1.4V97.08z"/>
								<rect x="570.13" y="87.27" style="fill:#434243;" width="1.4" height="1.4"/>
								<polygon style="fill:#434243;" points="585.54,87.27 585.54,85.87 584.14,85.87 584.14,87.27 582.74,87.27 582.74,88.67 
									584.14,88.67 584.14,90.07 585.54,90.07 585.54,88.67 								"/>
								<rect x="578.53" y="88.67" style="fill:#434243;" width="1.4" height="1.4"/>
								<polygon style="fill:#434243;" points="581.34,90.07 579.94,90.07 579.94,91.47 581.34,91.47 582.74,91.47 582.74,90.07 
									582.74,88.67 581.34,88.67 								"/>
								<rect x="591.15" y="88.67" style="fill:#434243;" width="1.4" height="1.4"/>
								<rect x="565.92" y="90.07" style="fill:#434243;" width="1.4" height="1.4"/>
								<polygon style="fill:#434243;" points="568.72,90.07 568.72,91.47 570.13,91.47 571.53,91.47 571.53,90.07 570.13,90.07 
																	"/>
								<path style="fill:#434243;" d="M577.13,91.47h-1.4v-1.4h1.4v-1.4v-1.4h-1.4v1.4h-1.4h-1.4v1.4v1.4v1.4h-1.4h-1.4v1.4h1.4
									h1.4v1.4h1.4h1.4v1.4h1.4v-1.4v-1.4v-1.4h1.4v-1.4v-1.4h-1.4V91.47z M575.73,94.28h-1.4v-1.4h1.4V94.28z"/>
								<rect x="585.54" y="90.07" style="fill:#434243;" width="1.4" height="1.4"/>
								<rect x="606.57" y="90.07" style="fill:#434243;" width="1.4" height="1.4"/>
								<rect x="609.37" y="90.07" style="fill:#434243;" width="1.4" height="1.4"/>
								<polygon style="fill:#434243;" points="584.14,92.87 582.74,92.87 581.34,92.87 581.34,94.28 582.74,94.28 584.14,94.28 
									585.54,94.28 585.54,92.87 585.54,91.47 584.14,91.47 								"/>
								<rect x="605.17" y="91.47" style="fill:#434243;" width="1.4" height="1.4"/>
								<rect x="607.97" y="91.47" style="fill:#434243;" width="1.4" height="1.4"/>
								<polygon style="fill:#434243;" points="568.72,92.87 567.32,92.87 567.32,94.28 567.32,95.68 567.32,97.08 568.72,97.08 
									568.72,95.68 570.13,95.68 570.13,94.28 568.72,94.28 								"/>
								<rect x="578.53" y="92.87" style="fill:#434243;" width="1.4" height="1.4"/>
								<rect x="596.76" y="92.87" style="fill:#434243;" width="1.4" height="1.4"/>
								<rect x="609.37" y="92.87" style="fill:#434243;" width="1.4" height="1.4"/>
								<polygon style="fill:#434243;" points="564.51,95.68 564.51,97.08 565.92,97.08 565.92,95.68 565.92,94.28 565.92,92.87 
									564.51,92.87 564.51,94.28 								"/>
								<polygon style="fill:#434243;" points="612.17,95.68 613.5,95.68 613.5,94.28 613.5,92.87 612.17,92.87 612.17,94.28 
									610.77,94.28 610.77,95.68 								"/>
								<rect x="570.13" y="95.68" style="fill:#434243;" width="1.4" height="1.4"/>
								<polygon style="fill:#434243;" points="582.74,95.68 581.34,95.68 579.94,95.68 579.94,97.08 581.34,97.08 582.74,97.08 
									584.14,97.08 584.14,95.68 								"/>
								<polygon style="fill:#434243;" points="574.33,97.08 572.92,97.08 572.92,98.48 572.92,99.88 574.33,99.88 574.33,98.48 
																	"/>
								<rect x="577.13" y="97.08" style="fill:#434243;" width="1.4" height="1.4"/>
								<rect x="584.14" y="97.08" style="fill:#434243;" width="1.4" height="1.4"/>
								<path style="fill:#434243;" d="M568.72,98.48h-1.4h-1.4h-1.4h-1.4h-1.4v1.4v1.4v0.03c0,0.47,0.04,0.92,0.13,1.37
									c0.1,0.49,0.25,0.96,0.45,1.4c0.22,0.5,0.49,0.97,0.82,1.4v-1.4v-1.4v-1.4v-1.4h1.4h1.4h1.4h1.4h1.4v1.4v1.4v1.4v1.4v1.4
									h-1.4h-1.4h-1.4h-1.37c0.42,0.31,0.88,0.57,1.37,0.78c0.45,0.19,0.92,0.33,1.4,0.43c0.42,0.08,0.85,0.13,1.3,0.13h0.11h1.4
									h1.4v-1.33v-1.4v-1.4v-1.4v-1.4v-1.4v-1.4h-1.4L568.72,98.48L568.72,98.48z"/>
								<path style="fill:#434243;" d="M581.34,98.48v1.4v1.4h-1.4v-1.4h-1.4v1.4h-1.4v1.4h-1.4h-1.4v-1.4h-1.4v1.4v1.4v1.4v1.4
									v1.32h1.4v-1.33h1.4v1.33h1.4v-1.33v-1.4v-1.4h1.4v-1.4h1.4v1.4h-1.4v1.4h1.4h1.4h1.4h1.4v-1.4h-1.4h-1.4v-1.4h1.4h1.4v-1.4
									v-1.4v-1.4h-1.4L581.34,98.48L581.34,98.48z M575.73,105.49h-1.4v-1.4h1.4V105.49z"/>
								<rect x="603.77" y="98.48" style="fill:#434243;" width="1.4" height="1.4"/>
								<rect x="574.33" y="99.88" style="fill:#434243;" width="1.4" height="1.4"/>
								<path style="fill:#434243;" d="M613.37,102.68c0.09-0.44,0.14-0.9,0.14-1.37v-0.03h-1.33v1.4L613.37,102.68L613.37,102.68z"
									/>
								<polygon style="fill:#434243;" points="567.32,105.49 568.72,105.49 568.72,104.09 568.72,102.68 568.72,101.28 
									567.32,101.28 565.92,101.28 564.51,101.28 564.51,102.68 564.51,104.09 564.51,105.49 565.92,105.49 								"/>
								<rect x="586.94" y="104.09" style="fill:#434243;" width="1.4" height="1.4"/>
								<rect x="607.97" y="104.09" style="fill:#434243;" width="1.4" height="1.4"/>
								<path style="fill:#434243;" d="M612.09,105.49c0.03-0.04,0.06-0.07,0.08-0.11c0.29-0.4,0.54-0.83,0.75-1.29h-0.75h-1.4v1.4
									L612.09,105.49L612.09,105.49z"/>
								<polygon style="fill:#434243;" points="582.74,106.89 581.34,106.89 579.94,106.89 579.94,108.22 581.34,108.22 
									582.74,108.22 584.14,108.22 585.54,108.22 585.54,106.89 584.14,106.89 								"/>
								<path style="fill:#434243;" d="M609.37,107.63c0.46-0.2,0.89-0.45,1.3-0.75h-1.3V107.63z"/>
							</g>
						</g>
					</g>
				</g>
				<g>
					<defs>
						<path id="SVGID_52_" d="M618.86,47.5c1.97,0,3.57,1.6,3.57,3.57v82.15c0,1.97-1.6,3.57-3.57,3.57H501
							c-1.97,0-3.57-1.6-3.57-3.57V51.07c0-1.97,1.6-3.57,3.57-3.57H618.86z"/>
					</defs>
					<clipPath id="SVGID_53_">
						<use xlink:href="#SVGID_52_"  style="overflow:visible;"/>
					</clipPath>
					
						<line style="clip-path:url(#SVGID_53_);fill:none;stroke:#434243;stroke-width:5.0001;stroke-linecap:round;stroke-miterlimit:10;" x1="508.64" y1="116.83" x2="568.72" y2="116.83"/>
				</g>
				<g>
					<defs>
						<path id="SVGID_54_" d="M618.86,47.5c1.97,0,3.57,1.6,3.57,3.57v82.15c0,1.97-1.6,3.57-3.57,3.57H501
							c-1.97,0-3.57-1.6-3.57-3.57V51.07c0-1.97,1.6-3.57,3.57-3.57H618.86z"/>
					</defs>
					<clipPath id="SVGID_55_">
						<use xlink:href="#SVGID_54_"  style="overflow:visible;"/>
					</clipPath>
					
						<line style="clip-path:url(#SVGID_55_);fill:none;stroke:#434243;stroke-width:3.5715;stroke-linecap:round;stroke-miterlimit:10;" x1="507.88" y1="128.75" x2="533.84" y2="128.75"/>
				</g>
			</g>
			<g style="clip-path:url(#SVGID_47_);">
				<g>
					<defs>
						<path id="SVGID_56_" d="M618.86,47.5c1.97,0,3.57,1.6,3.57,3.57v82.15c0,1.97-1.6,3.57-3.57,3.57H501
							c-1.97,0-3.57-1.6-3.57-3.57V51.07c0-1.97,1.6-3.57,3.57-3.57H618.86z"/>
					</defs>
					<clipPath id="SVGID_57_">
						<use xlink:href="#SVGID_56_"  style="overflow:visible;"/>
					</clipPath>
				</g>
			</g>
		</g>
		<g>
			<g>
				<g>
					<defs>
						<path id="SVGID_58_" d="M618.86,145.72c1.97,0,3.57,1.6,3.57,3.57v200c0,1.97-1.6,3.57-3.57,3.57H501
							c-1.97,0-3.57-1.6-3.57-3.57v-200c0-1.97,1.6-3.57,3.57-3.57H618.86z"/>
					</defs>
					<clipPath id="SVGID_59_">
						<use xlink:href="#SVGID_58_"  style="overflow:visible;"/>
					</clipPath>
				</g>
			</g>
			<g>
				<g>
					<defs>
						<path id="SVGID_60_" d="M618.86,145.72c1.97,0,3.57,1.6,3.57,3.57v200c0,1.97-1.6,3.57-3.57,3.57H501
							c-1.97,0-3.57-1.6-3.57-3.57v-200c0-1.97,1.6-3.57,3.57-3.57H618.86z"/>
					</defs>
					<clipPath id="SVGID_61_">
						<use xlink:href="#SVGID_60_"  style="overflow:visible;"/>
					</clipPath>
					<rect x="24.2" y="27.86" style="clip-path:url(#SVGID_61_);fill:#E5E5E4;" width="685.73" height="357.15"/>
				</g>
				<g id="App_mgmt_1_">
					<defs>
						<path id="SVGID_62_" d="M618.86,145.72c1.97,0,3.57,1.6,3.57,3.57v200c0,1.97-1.6,3.57-3.57,3.57H501
							c-1.97,0-3.57-1.6-3.57-3.57v-200c0-1.97,1.6-3.57,3.57-3.57H618.86z"/>
					</defs>
					<clipPath id="SVGID_63_">
						<use xlink:href="#SVGID_62_"  style="overflow:visible;"/>
					</clipPath>
					<g style="clip-path:url(#SVGID_63_);">
						
							<line style="fill:none;stroke:#C5C6C6;stroke-width:0.7143;stroke-miterlimit:10;" x1="497.43" y1="270.72" x2="622.43" y2="270.72"/>
						<g>
							<circle style="fill:#434243;" cx="536.71" cy="311.79" r="35.71"/>
							<g>
								<g>
									<defs>
										<circle id="SVGID_64_" cx="536.71" cy="311.79" r="35.71"/>
									</defs>
									<clipPath id="SVGID_65_">
										<use xlink:href="#SVGID_64_"  style="overflow:visible;"/>
									</clipPath>
									<polygon style="clip-path:url(#SVGID_65_);fill:#00B51A;" points="536.71,263.01 578.96,287.4 536.71,311.79 									"/>
								</g>
								<g>
									<path style="fill:#919395;" d="M618.86,343.93c0,1.97-1.6,3.57-3.57,3.57h-28.57c-1.97,0-3.57-1.6-3.57-3.57v-10.71
										c0-1.97,1.6-3.57,3.57-3.57h28.57c1.97,0,3.57,1.6,3.57,3.57V343.93z"/>
								</g>
							</g>
							<g>
								
									<line style="fill:none;stroke:#C5C6C6;stroke-width:0.7143;stroke-miterlimit:10;" x1="497.43" y1="170.72" x2="622.43" y2="170.72"/>
								<g>
									<g>
										<path style="fill:#919395;" d="M519.04,162.62l-1.66-2.85h1.93c0.85,0,1.55-0.69,1.55-1.55s-0.69-1.55-1.55-1.55h-1.93
											l1.66-2.85l-5.92,2.42l1.4-2.42l-10.77,4.4l10.77,4.4l-1.4-2.42L519.04,162.62z"/>
										<path style="fill:#919395;" d="M523.25,161.34v-6.25c0-0.67-0.54-1.22-1.22-1.22s-1.22,0.55-1.22,1.22v1.46
											c0.45,0.41,0.74,1,0.74,1.66c0,0.66-0.29,1.25-0.74,1.66v1.47c0,0.67,0.55,1.22,1.22,1.22S523.25,162.01,523.25,161.34z"
											/>
									</g>
									
										<line style="fill:none;stroke:#434243;stroke-width:3.5715;stroke-linecap:round;stroke-miterlimit:10;" x1="542.87" y1="158.22" x2="568.84" y2="158.22"/>
								</g>
								
									<line style="fill:none;stroke:#C5C6C6;stroke-width:0.7143;stroke-miterlimit:10;" x1="497.43" y1="195.72" x2="622.43" y2="195.72"/>
								
									<line style="fill:none;stroke:#C5C6C6;stroke-width:0.7143;stroke-miterlimit:10;" x1="497.43" y1="220.72" x2="622.43" y2="220.72"/>
								
									<line style="fill:none;stroke:#C5C6C6;stroke-width:0.7143;stroke-miterlimit:10;" x1="497.43" y1="245.72" x2="622.43" y2="245.72"/>
								<g>
									<g>
										<path style="fill:#919395;" d="M519.04,187.62l-1.66-2.85h1.93c0.85,0,1.55-0.69,1.55-1.55c0-0.85-0.69-1.55-1.55-1.55
											h-1.93l1.66-2.85l-5.92,2.42l1.4-2.42l-10.77,4.4l10.77,4.4l-1.4-2.42L519.04,187.62z"/>
										<path style="fill:#919395;" d="M523.25,186.34v-6.25c0-0.68-0.54-1.22-1.22-1.22s-1.22,0.54-1.22,1.22v1.46
											c0.45,0.41,0.74,1,0.74,1.66c0,0.66-0.29,1.25-0.74,1.66v1.46c0,0.67,0.55,1.22,1.22,1.22S523.25,187.02,523.25,186.34z"
											/>
									</g>
									
										<line style="fill:none;stroke:#434243;stroke-width:3.5715;stroke-linecap:round;stroke-miterlimit:10;" x1="542.87" y1="183.22" x2="594.32" y2="183.22"/>
								</g>
								<g>
									<g>
										<path style="fill:#919395;" d="M519.04,212.62l-1.66-2.85h1.93c0.85,0,1.55-0.69,1.55-1.55c0-0.85-0.69-1.55-1.55-1.55
											h-1.93l1.66-2.85l-5.92,2.42l1.4-2.42l-10.77,4.4l10.77,4.4l-1.4-2.42L519.04,212.62z"/>
										<path style="fill:#919395;" d="M523.25,211.34v-6.25c0-0.67-0.54-1.22-1.22-1.22s-1.22,0.55-1.22,1.22v1.46
											c0.45,0.41,0.74,1,0.74,1.66c0,0.66-0.29,1.25-0.74,1.66v1.46c0,0.67,0.55,1.22,1.22,1.22S523.25,212.01,523.25,211.34z"
											/>
									</g>
									
										<line style="fill:none;stroke:#434243;stroke-width:3.5715;stroke-linecap:round;stroke-miterlimit:10;" x1="542.87" y1="208.22" x2="610.18" y2="208.22"/>
								</g>
								<g>
									<g>
										<path style="fill:#919395;" d="M519.04,237.62l-1.66-2.85h1.93c0.85,0,1.55-0.69,1.55-1.55s-0.69-1.55-1.55-1.55h-1.93
											l1.66-2.85l-5.92,2.42l1.4-2.42l-10.77,4.4l10.77,4.4l-1.4-2.42L519.04,237.62z"/>
										<path style="fill:#919395;" d="M523.25,236.34v-6.25c0-0.67-0.54-1.22-1.22-1.22s-1.22,0.55-1.22,1.22v1.46
											c0.45,0.41,0.74,1,0.74,1.66c0,0.66-0.29,1.25-0.74,1.66v1.46c0,0.67,0.55,1.22,1.22,1.22S523.25,237.02,523.25,236.34z"
											/>
									</g>
									
										<line style="fill:none;stroke:#434243;stroke-width:3.5715;stroke-linecap:round;stroke-miterlimit:10;" x1="542.87" y1="233.22" x2="577.38" y2="233.22"/>
								</g>
								<g>
									<g>
										<path style="fill:#919395;" d="M519.04,262.62l-1.66-2.85h1.93c0.85,0,1.55-0.69,1.55-1.55c0-0.85-0.69-1.55-1.55-1.55
											h-1.93l1.66-2.85l-5.92,2.42l1.4-2.42l-10.77,4.4l10.77,4.4l-1.4-2.42L519.04,262.62z"/>
										<path style="fill:#919395;" d="M523.25,261.35v-6.25c0-0.67-0.54-1.22-1.22-1.22s-1.22,0.55-1.22,1.22v1.47
											c0.45,0.41,0.74,1,0.74,1.66c0,0.66-0.29,1.25-0.74,1.66v1.46c0,0.67,0.55,1.22,1.22,1.22S523.25,262.02,523.25,261.35z"
											/>
									</g>
									
										<line style="fill:none;stroke:#434243;stroke-width:3.5715;stroke-linecap:round;stroke-miterlimit:10;" x1="542.87" y1="258.22" x2="587.92" y2="258.22"/>
								</g>
							</g>
							
								<line style="fill:none;stroke:#434243;stroke-width:2.1429;stroke-linecap:round;stroke-miterlimit:10;" x1="576.63" y1="279.71" x2="617.48" y2="279.71"/>
							
								<line style="fill:none;stroke:#434243;stroke-width:2.1429;stroke-linecap:round;stroke-miterlimit:10;" x1="596.43" y1="285.06" x2="617.48" y2="285.06"/>
							
								<line style="fill:#00B51A;stroke:#00B51A;stroke-width:2.1429;stroke-linecap:round;stroke-miterlimit:10;" x1="591" y1="290.42" x2="617.48" y2="290.42"/>
						</g>
					</g>
					<g style="clip-path:url(#SVGID_63_);">
						<g>
							<defs>
								<path id="SVGID_66_" d="M618.86,145.72c1.97,0,3.57,1.6,3.57,3.57v200c0,1.97-1.6,3.57-3.57,3.57H501
									c-1.97,0-3.57-1.6-3.57-3.57v-200c0-1.97,1.6-3.57,3.57-3.57H618.86z"/>
							</defs>
							<clipPath id="SVGID_67_">
								<use xlink:href="#SVGID_66_"  style="overflow:visible;"/>
							</clipPath>
						</g>
					</g>
				</g>
				<g id="Mgmt_contexts_1_">
					<g>
						<g>
							<path style="fill:#DADBDB;" d="M627.79,352.86c-1.97,0-3.57-1.6-3.57-3.57v-19.64c0-1.97,1.6-3.57,3.57-3.57h5.36
								c1.97,0,3.57,1.6,3.57,3.57v19.64c0,1.97-1.6,3.57-3.57,3.57H627.79z"/>
							<g>
								<circle style="fill:#434243;" cx="630.47" cy="332.31" r="1.79"/>
								<circle style="fill:#434243;" cx="630.47" cy="346.63" r="1.79"/>
								<circle style="fill:#434243;" cx="630.47" cy="339.47" r="1.79"/>
							</g>
						</g>
						<g>
							<path style="fill:#434243;" d="M627.79,174.29c-1.97,0-3.57-1.6-3.57-3.57v-21.43c0-1.97,1.6-3.57,3.57-3.57h5.36
								c1.97,0,3.57,1.6,3.57,3.57v21.43c0,1.97-1.6,3.57-3.57,3.57H627.79z"/>
							
								<line style="fill:none;stroke:#E5E5E4;stroke-width:2.1429;stroke-linecap:round;stroke-miterlimit:10;" x1="630.47" y1="150.06" x2="630.47" y2="169.95"/>
						</g>
					</g>
				</g>
			</g>
		</g>
	</g>
	<g>
		<path style="fill-rule:evenodd;clip-rule:evenodd;fill:#3B3B3B;" d="M711.44,0H17.14C7.68,0,0,7.67,0,17.14v407.15
			c0,9.47,7.68,17.14,17.14,17.14h694.3c9.47,0,17.14-7.67,17.14-17.14V17.14C728.59,7.67,720.91,0,711.44,0z M707.16,413.58H21.43
			V27.86h685.73V413.58z"/>
		
			<radialGradient id="SVGID_68_" cx="365.6152" cy="441.5811" r="69.6488" gradientTransform="matrix(1 0 0 0.3 0 309.1068)" gradientUnits="userSpaceOnUse">
			<stop  offset="0" style="stop-color:#BBBDBF"/>
			<stop  offset="1" style="stop-color:#737373"/>
		</radialGradient>
		<polygon style="fill-rule:evenodd;clip-rule:evenodd;fill:url(#SVGID_68_);" points="441.45,486.25 435.95,441.44 294.84,441.44 
			289.34,486.25 		"/>
		<linearGradient id="SVGID_69_" gradientUnits="userSpaceOnUse" x1="365.3955" y1="508.2441" x2="365.3955" y2="486.2451">
			<stop  offset="0" style="stop-color:#898B8D"/>
			<stop  offset="0.5" style="stop-color:#C5C7C9"/>
			<stop  offset="1" style="stop-color:#737373"/>
		</linearGradient>
		<path style="fill-rule:evenodd;clip-rule:evenodd;fill:url(#SVGID_69_);" d="M441.45,486.25h-76.06h-76.06
			c-0.46,4.42-2.06,16.16-4.66,22h80.72h80.72C443.52,502.41,441.92,490.66,441.45,486.25z"/>
		
			<radialGradient id="SVGID_70_" cx="365.3945" cy="527.9287" r="73.8273" gradientTransform="matrix(1 0 0 0.2512 0 395.2956)" gradientUnits="userSpaceOnUse">
			<stop  offset="0" style="stop-color:#333333"/>
			<stop  offset="1" style="stop-color:#898B8D"/>
		</radialGradient>
		<path style="fill-rule:evenodd;clip-rule:evenodd;fill:url(#SVGID_70_);" d="M465.05,547.06c-4.72-9.71-18.94-38.81-18.94-38.81
			h-80.72h-80.72c0,0-14.22,29.1-18.94,38.81c-5.41,11.13,4.85,12.52,8.5,12.52c22.79,0,91.16,0,91.16,0s68.37,0,91.16,0
			C460.21,559.57,470.46,558.19,465.05,547.06z"/>
	</g>
</g>
</svg>
