<?xml version="1.0" encoding="utf-8"?>
<!-- Generator: Adobe Illustrator 16.0.3, SVG Export Plug-In . SVG Version: 6.00 Build 0)  -->
<!DOCTYPE svg PUBLIC "-//W3C//DTD SVG 1.1//EN" "http://www.w3.org/Graphics/SVG/1.1/DTD/svg11.dtd">
<svg version="1.1" id="Layer_1" xmlns="http://www.w3.org/2000/svg" xmlns:xlink="http://www.w3.org/1999/xlink" x="0px" y="0px"
	 width="910px" height="180px" viewBox="0 0 910 180" style="enable-background:new 0 0 910 180;" xml:space="preserve">
<defs>
  <style type="text/css">@import url('https://fonts.googleapis.com/css?family=Palanquin:400,700');</style>
</defs>
<rect style="fill:#949494;" width="910" height="180"/>
<path style="fill:#E6E6E6;" d="M910,180H56.32V74.15c0-5.52,4.48-10,10-10H910V180z"/>
<g>
	<g>
		<path style="fill:#404041;" d="M211.32,44.15c0,5.52-4.48,10-10,10h-135c-5.52,0-10-4.48-10-10v-15c0-5.52,4.48-10,10-10h135
			c5.52,0,10,4.48,10,10V44.15z"/>
		<text transform="matrix(1 0 0 1 69.1528 42.0059)" style="fill:#DBDCDD; font-family:'Palanquin'; font-size:18px;">all conversations</text>
	</g>
	<g>
		<path style="fill:#E6E7E8;" d="M296.32,44.15c0,5.52-4.48,10-10,10h-55c-5.52,0-10-4.48-10-10v-15c0-5.52,4.48-10,10-10h55
			c5.52,0,10,4.48,10,10V44.15z"/>
		<text transform="matrix(1 0 0 1 239.7461 42.0059)" style="fill:#404041; font-family:'Palanquin'; font-size:18px;">work</text>
	</g>
	<g>
		<path style="fill:#E6E7E8;" d="M551.32,44.15c0,5.52-4.48,10-10,10h-130c-5.52,0-10-4.48-10-10v-15c0-5.52,4.48-10,10-10h130
			c5.52,0,10,4.48,10,10V44.15z"/>
		<text transform="matrix(1 0 0 1 418.5269 42.0059)" style="fill:#404041; font-family:'Palanquin'; font-size:18px;">other personal</text>
	</g>
	<g>
		<path style="fill:#E6E7E8;" d="M391.32,44.15c0,5.52-4.48,10-10,10h-65c-5.52,0-10-4.48-10-10v-15c0-5.52,4.48-10,10-10h65
			c5.52,0,10,4.48,10,10V44.15z"/>
		<text transform="matrix(1 0 0 1 325.2192 42.0059)" style="fill:#404041; font-family:'Palanquin'; font-size:18px;">family</text>
	</g>
</g>
<g>
	<g>
		<path style="fill:#929497;" d="M101.32,137.2l-4.86,2.82v-3.29c0-1.46-1.18-2.64-2.64-2.64s-2.64,1.18-2.64,2.64v3.29l-4.87-2.82
			l4.12,10.09l-4.12-2.39l7.5,18.36l7.5-18.36l-4.12,2.39L101.32,137.2z"/>
		<path style="fill:#929497;" d="M99.14,130.04H88.49c-1.15,0-2.08,0.93-2.08,2.08s0.93,2.08,2.08,2.08h2.5
			c0.7-0.77,1.7-1.26,2.83-1.26c1.12,0,2.13,0.49,2.83,1.26h2.5c1.15,0,2.08-0.93,2.08-2.08S100.29,130.04,99.14,130.04z"/>
	</g>
	<g>
		<text transform="matrix(1 0 0 1 216.3169 141.1782)" style="fill:#404041; font-family:'Palanquin'; font-size:18px;">Notice: your account statement is available</text>
		<g>
			<g>
				<text transform="matrix(1 0 0 1 216.3169 163.7124)" style="fill:#929497; font-family:'Palanquin'; font-size:12px;">author</text>
				<text transform="matrix(1 0 0 1 257.0386 165.2202)" style="fill:#006BB3; font-family:'Palanquin'; font-size:16px;">bank</text>
			</g>
		</g>
	</g>
	<line style="fill:none;stroke:#C5C7C9;stroke-width:2;stroke-miterlimit:10;" x1="56.32" y1="119.15" x2="910" y2="119.15"/>
	<line style="fill:none;stroke:#C5C7C9;stroke-width:2;stroke-miterlimit:10;" x1="56.32" y1="174.15" x2="910" y2="174.15"/>
	<g>
		<path style="fill:#006BB3;" d="M147.57,130.4c-8.97,0-16.25,7.28-16.25,16.25s7.28,16.25,16.25,16.25s16.25-7.28,16.25-16.25
			S156.54,130.4,147.57,130.4z M156.97,140.01c-0.22,0.33-0.44,0.66-0.67,0.99c-0.23,0.33-0.46,0.65-0.69,0.98
			c-0.23,0.33-0.47,0.64-0.7,0.97c-0.23,0.32-0.47,0.64-0.71,0.96c-0.24,0.32-0.48,0.63-0.72,0.95c-0.24,0.32-0.48,0.63-0.73,0.94
			c-0.24,0.31-0.49,0.62-0.74,0.93c-0.25,0.31-0.5,0.62-0.75,0.92c-0.51,0.61-1.02,1.21-1.53,1.81l-1.53,1.81l-0.76,0.91l-0.77,0.91
			l-0.77,0.9l-0.78,0.9c-0.51,0.59-1.36,0.71-2,0.32l-0.51-0.31c-0.14-0.09-0.27-0.19-0.39-0.3c-0.12-0.11-0.23-0.23-0.33-0.35
			c-0.1-0.12-0.2-0.25-0.3-0.38l-0.3-0.38c-0.2-0.25-0.4-0.51-0.6-0.76l-0.59-0.77l-0.59-0.77c-0.2-0.26-0.39-0.52-0.58-0.78
			c-0.19-0.26-0.38-0.52-0.58-0.78c-0.19-0.26-0.38-0.53-0.57-0.79c-0.39-0.55-0.25-1.32,0.3-1.71c0.47-0.33,1.1-0.28,1.51,0.08
			c0.24,0.21,0.49,0.43,0.73,0.65c0.24,0.22,0.48,0.44,0.72,0.66c0.24,0.22,0.48,0.44,0.71,0.66l0.71,0.67l0.7,0.67
			c0.23,0.22,0.46,0.45,0.7,0.68l0.05,0.05l0.3-0.33l0.8-0.87l0.81-0.87l1.61-1.74c0.54-0.58,1.07-1.17,1.61-1.74
			c0.27-0.29,0.54-0.57,0.82-0.86c0.28-0.28,0.55-0.57,0.83-0.85c0.28-0.28,0.56-0.56,0.85-0.83s0.56-0.56,0.85-0.83
			c0.29-0.27,0.57-0.55,0.86-0.82c0.29-0.27,0.58-0.54,0.87-0.81c0.29-0.27,0.59-0.54,0.88-0.8c0.3-0.26,0.6-0.53,0.9-0.79
			c0.3-0.25,0.75-0.22,1.01,0.09C157.13,139.4,157.14,139.75,156.97,140.01z"/>
		<path style="fill:#B31B00;" d="M190.07,130.4c-8.97,0-16.25,7.28-16.25,16.25s7.28,16.25,16.25,16.25s16.25-7.28,16.25-16.25
			S199.04,130.4,190.07,130.4z M198.23,151.42c0.69,0.58,0.77,1.61,0.19,2.29c-0.32,0.38-0.78,0.58-1.24,0.58
			c-0.37,0-0.74-0.13-1.05-0.38l-6.06-5.13l-6.06,5.13c-0.31,0.26-0.68,0.38-1.05,0.38c-0.46,0-0.92-0.19-1.24-0.58
			c-0.58-0.68-0.49-1.71,0.19-2.29l5.64-4.78l-5.64-4.78c-0.69-0.58-0.77-1.61-0.19-2.29c0.58-0.69,1.6-0.77,2.29-0.19l6.06,5.13
			l6.06-5.13c0.69-0.58,1.71-0.49,2.29,0.19c0.58,0.68,0.49,1.71-0.19,2.29l-5.64,4.78L198.23,151.42z"/>
	</g>
</g>
<g>
	<g>
		<path style="fill:#929497;" d="M101.32,82.2l-4.86,2.83v-3.29c0-1.46-1.18-2.64-2.64-2.64s-2.64,1.18-2.64,2.64v3.29l-4.87-2.83
			l4.12,10.09l-4.12-2.39l7.5,18.36l7.5-18.36l-4.12,2.39L101.32,82.2z"/>
		<path style="fill:#929497;" d="M99.14,75.04H88.49c-1.15,0-2.08,0.93-2.08,2.08s0.93,2.08,2.08,2.08h2.5
			c0.7-0.77,1.7-1.26,2.83-1.26c1.12,0,2.13,0.49,2.83,1.26h2.5c1.15,0,2.08-0.93,2.08-2.08S100.29,75.04,99.14,75.04z"/>
	</g>
	<g>
		<text transform="matrix(1 0 0 1 216.3169 86.1787)" style="fill:#404041; font-family:'Palanquin'; font-size:18px;">Sitting on the bay trail behind ATT park; thought you might enjoy the view from my bench</text>
		<g>
			<g>
				<text transform="matrix(1 0 0 1 216.3169 108.7129)" style="fill:#929497; font-family:'Palanquin'; font-size:12px;">author</text>
				<text transform="matrix(1 0 0 1 257.0386 110.2207)" style="fill:#006BB3; font-family:'Palanquin'; font-size:16px;">@nbadg</text>
			</g>
		</g>
	</g>
	<line style="fill:none;stroke:#C5C7C9;stroke-width:2;stroke-miterlimit:10;" x1="56.32" y1="119.15" x2="910" y2="119.15"/>
	<g>
		<path style="fill:#006BB3;" d="M147.57,75.4c-8.97,0-16.25,7.28-16.25,16.25s7.28,16.25,16.25,16.25s16.25-7.28,16.25-16.25
			S156.54,75.4,147.57,75.4z M156.97,85.01c-0.22,0.33-0.44,0.67-0.67,0.99c-0.23,0.33-0.46,0.65-0.69,0.98
			c-0.23,0.33-0.47,0.64-0.7,0.97c-0.23,0.32-0.47,0.64-0.71,0.96c-0.24,0.32-0.48,0.63-0.72,0.95c-0.24,0.32-0.48,0.63-0.73,0.94
			c-0.24,0.31-0.49,0.62-0.74,0.93c-0.25,0.31-0.5,0.61-0.75,0.92c-0.51,0.61-1.02,1.21-1.53,1.81l-1.53,1.81l-0.76,0.91l-0.77,0.9
			l-0.77,0.9l-0.78,0.9c-0.51,0.59-1.36,0.71-2,0.32l-0.51-0.31c-0.14-0.09-0.27-0.19-0.39-0.3c-0.12-0.11-0.23-0.23-0.33-0.35
			c-0.1-0.12-0.2-0.25-0.3-0.38l-0.3-0.38c-0.2-0.25-0.4-0.51-0.6-0.76l-0.59-0.77l-0.59-0.77c-0.2-0.26-0.39-0.52-0.58-0.78
			c-0.19-0.26-0.38-0.52-0.58-0.78c-0.19-0.26-0.38-0.53-0.57-0.79c-0.39-0.55-0.25-1.32,0.3-1.71c0.47-0.33,1.1-0.28,1.51,0.08
			c0.24,0.21,0.49,0.43,0.73,0.65c0.24,0.22,0.48,0.44,0.72,0.66c0.24,0.22,0.48,0.44,0.71,0.66l0.71,0.67l0.7,0.67
			c0.23,0.22,0.46,0.45,0.7,0.68l0.05,0.05l0.3-0.33l0.8-0.87l0.81-0.87l1.61-1.74c0.54-0.58,1.07-1.16,1.61-1.74
			c0.27-0.29,0.54-0.57,0.82-0.86c0.28-0.28,0.55-0.57,0.83-0.85c0.28-0.28,0.56-0.56,0.85-0.84s0.56-0.56,0.85-0.83
			c0.29-0.27,0.57-0.55,0.86-0.82s0.58-0.54,0.87-0.81c0.29-0.27,0.59-0.54,0.88-0.8c0.3-0.27,0.6-0.53,0.9-0.79
			c0.3-0.25,0.75-0.22,1.01,0.08C157.13,84.4,157.14,84.75,156.97,85.01z"/>
		<path style="fill:#B31B00;" d="M190.07,75.4c-8.97,0-16.25,7.28-16.25,16.25s7.28,16.25,16.25,16.25s16.25-7.28,16.25-16.25
			S199.04,75.4,190.07,75.4z M198.23,96.42c0.69,0.58,0.77,1.6,0.19,2.29c-0.32,0.38-0.78,0.57-1.24,0.57
			c-0.37,0-0.74-0.13-1.05-0.38l-6.06-5.13l-6.06,5.13c-0.31,0.26-0.68,0.38-1.05,0.38c-0.46,0-0.92-0.19-1.24-0.57
			c-0.58-0.68-0.49-1.71,0.19-2.29l5.64-4.78l-5.64-4.78c-0.69-0.58-0.77-1.6-0.19-2.29c0.58-0.69,1.6-0.77,2.29-0.19l6.06,5.13
			l6.06-5.13c0.69-0.58,1.71-0.49,2.29,0.19c0.58,0.68,0.49,1.71-0.19,2.29l-5.64,4.78L198.23,96.42z"/>
	</g>
</g>
</svg>
