<?xml version="1.0" encoding="utf-8"?>
<!-- Generator: Adobe Illustrator 16.0.3, SVG Export Plug-In . SVG Version: 6.00 Build 0)  -->
<!DOCTYPE svg PUBLIC "-//W3C//DTD SVG 1.1//EN" "http://www.w3.org/Graphics/SVG/1.1/DTD/svg11.dtd">
<svg version="1.1" id="Layer_1" xmlns="http://www.w3.org/2000/svg" xmlns:xlink="http://www.w3.org/1999/xlink" x="0px" y="0px"
	 width="850px" height="165px" viewBox="0 0 850 165" style="enable-background:new 0 0 850 165;" xml:space="preserve">
<defs>
  <style type="text/css">@import url('https://fonts.googleapis.com/css?family=Palanquin:400,700');</style>
</defs>
<rect style="fill:#E6E6E6;" width="850" height="165"/>
<g>
	<g>
		<path style="fill:#929497;" d="M45,18.06l-4.86,2.83v-3.29c0-1.46-1.18-2.64-2.64-2.64s-2.64,1.18-2.64,2.64v3.29L30,18.06
			l4.12,10.09L30,25.75l7.5,18.36L45,25.75l-4.12,2.39L45,18.06z"/>
		<path style="fill:#929497;" d="M42.83,10.89H32.18c-1.15,0-2.08,0.93-2.08,2.08s0.93,2.08,2.08,2.08h2.5
			c0.7-0.77,1.7-1.26,2.83-1.26c1.12,0,2.13,0.49,2.83,1.26h2.5c1.15,0,2.08-0.93,2.08-2.08S43.97,10.89,42.83,10.89z"/>
	</g>
	<g>
		<text transform="matrix(1 0 0 1 160 22.0322)" style="fill:#404041; font-family:'Palanquin'; font-size:18px;">Sitting on the bay trail behind ATT park; thought you might enjoy the view from my bench</text>
		<g>
			<g>
				<text transform="matrix(1 0 0 1 160 44.5664)" style="fill:#929497; font-family:'Palanquin'; font-size:12px;">author</text>
				<text transform="matrix(1 0 0 1 200.7217 46.0742)" style="fill:#006BB3; font-family:'Palanquin'; font-size:16px;">@nbadg</text>
			</g>
		</g>
	</g>
	<g>
		<path style="fill:#006BB3;" d="M91.25,11.25C82.28,11.25,75,18.53,75,27.5s7.28,16.25,16.25,16.25s16.25-7.28,16.25-16.25
			S100.22,11.25,91.25,11.25z M100.66,20.86c-0.22,0.33-0.44,0.67-0.67,0.99c-0.23,0.33-0.46,0.65-0.69,0.98
			c-0.23,0.33-0.47,0.64-0.7,0.97c-0.23,0.32-0.47,0.64-0.71,0.96c-0.24,0.32-0.48,0.63-0.72,0.95c-0.24,0.32-0.48,0.63-0.73,0.94
			c-0.24,0.31-0.49,0.62-0.74,0.93c-0.25,0.31-0.5,0.61-0.75,0.92c-0.51,0.61-1.02,1.21-1.53,1.81l-1.53,1.81l-0.76,0.91l-0.77,0.9
			l-0.77,0.9l-0.78,0.9c-0.51,0.59-1.36,0.71-2,0.32l-0.51-0.31c-0.14-0.09-0.27-0.19-0.39-0.3c-0.12-0.11-0.23-0.23-0.33-0.35
			c-0.1-0.12-0.2-0.25-0.3-0.38l-0.3-0.38c-0.2-0.25-0.4-0.51-0.6-0.76l-0.59-0.77l-0.59-0.77c-0.2-0.26-0.39-0.52-0.58-0.78
			c-0.19-0.26-0.38-0.52-0.58-0.78c-0.19-0.26-0.38-0.53-0.57-0.79c-0.39-0.55-0.25-1.32,0.3-1.71c0.47-0.33,1.1-0.28,1.51,0.08
			c0.24,0.21,0.49,0.43,0.73,0.65c0.24,0.22,0.48,0.44,0.72,0.66c0.24,0.22,0.48,0.44,0.71,0.66l0.71,0.67l0.7,0.67
			c0.23,0.22,0.46,0.45,0.7,0.68l0.05,0.05l0.3-0.33l0.8-0.87l0.81-0.87l1.61-1.74c0.54-0.58,1.07-1.16,1.61-1.74
			c0.27-0.29,0.54-0.57,0.82-0.86c0.28-0.28,0.55-0.57,0.83-0.85c0.28-0.28,0.56-0.56,0.85-0.84s0.56-0.56,0.85-0.83
			c0.29-0.27,0.57-0.55,0.86-0.82s0.58-0.54,0.87-0.81c0.29-0.27,0.59-0.54,0.88-0.8c0.3-0.27,0.6-0.53,0.9-0.79
			c0.3-0.25,0.75-0.22,1.01,0.08C100.81,20.25,100.82,20.6,100.66,20.86z"/>
		<path style="fill:#B31B00;" d="M133.75,11.25c-8.97,0-16.25,7.28-16.25,16.25s7.28,16.25,16.25,16.25S150,36.47,150,27.5
			S142.72,11.25,133.75,11.25z M141.91,32.28c0.69,0.58,0.77,1.6,0.19,2.29c-0.32,0.38-0.78,0.57-1.24,0.57
			c-0.37,0-0.74-0.13-1.05-0.38l-6.06-5.13l-6.06,5.13c-0.31,0.26-0.68,0.38-1.05,0.38c-0.46,0-0.92-0.19-1.24-0.57
			c-0.58-0.68-0.49-1.71,0.19-2.29l5.64-4.78l-5.64-4.78c-0.69-0.58-0.77-1.6-0.19-2.29c0.58-0.69,1.6-0.77,2.29-0.19l6.06,5.13
			l6.06-5.13c0.69-0.58,1.71-0.49,2.29,0.19c0.58,0.68,0.49,1.71-0.19,2.29l-5.64,4.78L141.91,32.28z"/>
	</g>
</g>
<g>
	<g>
		<path style="fill:#929497;" d="M45,73.06l-4.86,2.82v-3.29c0-1.46-1.18-2.64-2.64-2.64s-2.64,1.18-2.64,2.64v3.29L30,73.06
			l4.12,10.09L30,80.75l7.5,18.36L45,80.75l-4.12,2.39L45,73.06z"/>
		<path style="fill:#929497;" d="M42.83,65.89H32.18c-1.15,0-2.08,0.93-2.08,2.08s0.93,2.08,2.08,2.08h2.5
			c0.7-0.77,1.7-1.26,2.83-1.26c1.12,0,2.13,0.49,2.83,1.26h2.5c1.15,0,2.08-0.93,2.08-2.08S43.97,65.89,42.83,65.89z"/>
	</g>
	<g>
		<text transform="matrix(1 0 0 1 160 77.0322)" style="fill:#404041; font-family:'Palanquin'; font-size:18px;">Notice: your account statement is available</text>
		<g>
			<g>
				<text transform="matrix(1 0 0 1 160 99.5664)" style="fill:#929497; font-family:'Palanquin'; font-size:12px;">author</text>
				<text transform="matrix(1 0 0 1 200.7217 101.0742)" style="fill:#006BB3; font-family:'Palanquin'; font-size:16px;">bank</text>
			</g>
		</g>
	</g>
	<line style="fill:none;stroke:#C5C7C9;stroke-width:2;stroke-miterlimit:10;" x1="0" y1="55" x2="850" y2="55"/>
	<g>
		<path style="fill:#006BB3;" d="M91.25,66.25C82.28,66.25,75,73.53,75,82.5s7.28,16.25,16.25,16.25s16.25-7.28,16.25-16.25
			S100.22,66.25,91.25,66.25z M100.66,75.86c-0.22,0.33-0.44,0.66-0.67,0.99c-0.23,0.33-0.46,0.65-0.69,0.98
			c-0.23,0.33-0.47,0.64-0.7,0.97c-0.23,0.32-0.47,0.64-0.71,0.96c-0.24,0.32-0.48,0.63-0.72,0.95c-0.24,0.32-0.48,0.63-0.73,0.94
			c-0.24,0.31-0.49,0.62-0.74,0.93c-0.25,0.31-0.5,0.62-0.75,0.92c-0.51,0.61-1.02,1.21-1.53,1.81l-1.53,1.81l-0.76,0.91l-0.77,0.91
			l-0.77,0.9l-0.78,0.9c-0.51,0.59-1.36,0.71-2,0.32l-0.51-0.31c-0.14-0.09-0.27-0.19-0.39-0.3c-0.12-0.11-0.23-0.23-0.33-0.35
			c-0.1-0.12-0.2-0.25-0.3-0.38l-0.3-0.38c-0.2-0.25-0.4-0.51-0.6-0.76l-0.59-0.77l-0.59-0.77c-0.2-0.26-0.39-0.52-0.58-0.78
			c-0.19-0.26-0.38-0.52-0.58-0.78c-0.19-0.26-0.38-0.53-0.57-0.79c-0.39-0.55-0.25-1.32,0.3-1.71c0.47-0.33,1.1-0.28,1.51,0.08
			c0.24,0.21,0.49,0.43,0.73,0.65c0.24,0.22,0.48,0.44,0.72,0.66c0.24,0.22,0.48,0.44,0.71,0.66l0.71,0.67l0.7,0.67
			c0.23,0.22,0.46,0.45,0.7,0.68l0.05,0.05l0.3-0.33l0.8-0.87l0.81-0.87l1.61-1.74c0.54-0.58,1.07-1.17,1.61-1.74
			c0.27-0.29,0.54-0.57,0.82-0.86c0.28-0.28,0.55-0.57,0.83-0.85c0.28-0.28,0.56-0.56,0.85-0.83s0.56-0.56,0.85-0.83
			c0.29-0.27,0.57-0.55,0.86-0.82c0.29-0.27,0.58-0.54,0.87-0.81c0.29-0.27,0.59-0.54,0.88-0.8c0.3-0.26,0.6-0.53,0.9-0.79
			c0.3-0.25,0.75-0.22,1.01,0.09C100.81,75.25,100.82,75.6,100.66,75.86z"/>
		<path style="fill:#B31B00;" d="M133.75,66.25c-8.97,0-16.25,7.28-16.25,16.25s7.28,16.25,16.25,16.25S150,91.47,150,82.5
			S142.72,66.25,133.75,66.25z M141.91,87.28c0.69,0.58,0.77,1.61,0.19,2.29c-0.32,0.38-0.78,0.58-1.24,0.58
			c-0.37,0-0.74-0.13-1.05-0.38l-6.06-5.13l-6.06,5.13c-0.31,0.26-0.68,0.38-1.05,0.38c-0.46,0-0.92-0.19-1.24-0.58
			c-0.58-0.68-0.49-1.71,0.19-2.29l5.64-4.78l-5.64-4.78c-0.69-0.58-0.77-1.61-0.19-2.29c0.58-0.69,1.6-0.77,2.29-0.19l6.06,5.13
			l6.06-5.13c0.69-0.58,1.71-0.49,2.29,0.19c0.58,0.68,0.49,1.71-0.19,2.29l-5.64,4.78L141.91,87.28z"/>
	</g>
</g>
<g>
	<g>
		<path style="fill:#929497;" d="M45,128.06l-4.86,2.82v-3.29c0-1.46-1.18-2.64-2.64-2.64c-1.46,0-2.63,1.18-2.63,2.64v3.29
			L30,128.06l4.12,10.09L30,135.75l7.5,18.36l7.5-18.36l-4.12,2.39L45,128.06z"/>
		<path style="fill:#929497;" d="M42.82,120.89H32.18c-1.15,0-2.08,0.93-2.08,2.08s0.93,2.08,2.08,2.08h2.5
			c0.7-0.77,1.7-1.26,2.83-1.26c1.12,0,2.13,0.49,2.83,1.26h2.5c1.15,0,2.08-0.93,2.08-2.08S43.97,120.89,42.82,120.89z"/>
	</g>
	<g>
		<text transform="matrix(1 0 0 1 159.9995 132.0322)" style="fill:#404041; font-family:'Palanquin'; font-size:18px;">Announcing the Loft pitch event, 12/17</text>
		<g>
			<g>
				<text transform="matrix(1 0 0 1 159.9995 154.5664)" style="fill:#929497; font-family:'Palanquin'; font-size:12px;">author</text>
				<text transform="matrix(1 0 0 1 200.7212 156.0742)" style="fill:#006BB3; font-family:'Palanquin'; font-size:16px;">@aws-loft-sf</text>
			</g>
		</g>
	</g>
	<line style="fill:none;stroke:#C5C7C9;stroke-width:2;stroke-miterlimit:10;" x1="0" y1="110" x2="850" y2="110"/>
	<g>
		<path style="fill:#006BB3;" d="M91.25,121.25c-8.97,0-16.25,7.28-16.25,16.25s7.28,16.25,16.25,16.25s16.25-7.28,16.25-16.25
			S100.22,121.25,91.25,121.25z M100.65,130.86c-0.22,0.33-0.44,0.66-0.67,0.99c-0.23,0.33-0.46,0.65-0.69,0.98
			c-0.23,0.33-0.47,0.64-0.7,0.97c-0.23,0.32-0.47,0.64-0.71,0.96c-0.24,0.32-0.48,0.63-0.72,0.95c-0.24,0.32-0.48,0.63-0.73,0.94
			c-0.24,0.31-0.49,0.62-0.74,0.93s-0.5,0.62-0.75,0.92c-0.51,0.61-1.02,1.21-1.53,1.81l-1.53,1.81l-0.76,0.91l-0.77,0.91l-0.77,0.9
			l-0.78,0.9c-0.51,0.59-1.36,0.71-2,0.32l-0.51-0.31c-0.14-0.09-0.27-0.19-0.39-0.3c-0.12-0.11-0.23-0.23-0.33-0.35
			c-0.1-0.12-0.2-0.25-0.3-0.38l-0.3-0.38c-0.2-0.25-0.4-0.51-0.6-0.76l-0.59-0.77l-0.59-0.77c-0.2-0.26-0.39-0.52-0.58-0.78
			c-0.19-0.26-0.38-0.52-0.58-0.78c-0.19-0.26-0.38-0.53-0.57-0.79c-0.39-0.55-0.25-1.32,0.3-1.71c0.47-0.33,1.1-0.28,1.51,0.08
			c0.24,0.21,0.49,0.43,0.73,0.65c0.24,0.22,0.48,0.44,0.72,0.66s0.48,0.44,0.71,0.66l0.71,0.67l0.7,0.67
			c0.23,0.22,0.46,0.45,0.7,0.68l0.05,0.05l0.3-0.33l0.8-0.87l0.81-0.87l1.61-1.74c0.54-0.58,1.07-1.17,1.61-1.74
			c0.27-0.29,0.54-0.57,0.82-0.86c0.28-0.28,0.55-0.57,0.83-0.85c0.28-0.28,0.56-0.56,0.85-0.83c0.28-0.28,0.57-0.56,0.85-0.83
			c0.29-0.27,0.57-0.55,0.86-0.82c0.29-0.27,0.58-0.54,0.87-0.81c0.29-0.27,0.59-0.54,0.88-0.8c0.3-0.26,0.6-0.53,0.9-0.79
			c0.3-0.25,0.75-0.22,1.01,0.09C100.81,130.25,100.82,130.6,100.65,130.86z"/>
		<path style="fill:#B31B00;" d="M133.75,121.25c-8.97,0-16.25,7.28-16.25,16.25s7.28,16.25,16.25,16.25S150,146.47,150,137.5
			S142.72,121.25,133.75,121.25z M141.91,142.28c0.69,0.58,0.77,1.61,0.19,2.29c-0.32,0.38-0.78,0.58-1.24,0.58
			c-0.37,0-0.74-0.13-1.05-0.38l-6.06-5.13l-6.06,5.13c-0.3,0.26-0.68,0.38-1.05,0.38c-0.46,0-0.92-0.19-1.24-0.58
			c-0.58-0.68-0.5-1.71,0.19-2.29l5.64-4.78l-5.64-4.78c-0.68-0.58-0.77-1.61-0.19-2.29c0.58-0.69,1.6-0.77,2.29-0.19l6.06,5.13
			l6.06-5.13c0.69-0.58,1.71-0.49,2.29,0.19c0.58,0.68,0.49,1.71-0.19,2.29l-5.64,4.78L141.91,142.28z"/>
	</g>
</g>
</svg>
