<?xml version="1.0" encoding="utf-8"?>
<!-- Generator: Adobe Illustrator 16.0.3, SVG Export Plug-In . SVG Version: 6.00 Build 0)  -->
<!DOCTYPE svg PUBLIC "-//W3C//DTD SVG 1.1//EN" "http://www.w3.org/Graphics/SVG/1.1/DTD/svg11.dtd">
<svg version="1.1" id="Layer_1" xmlns="http://www.w3.org/2000/svg" xmlns:xlink="http://www.w3.org/1999/xlink" x="0px" y="0px"
	 width="960px" height="415px" viewBox="0 0 960 415" style="enable-background:new 0 0 960 415;" xml:space="preserve">
<defs>
  <style type="text/css">@import url('https://fonts.googleapis.com/css?family=Palanquin:400,700');</style>
</defs>
<g>
	<g>
		<g>
			<path style="fill:#FFFFFF;" d="M21.91,57.81c15.47,0,18.46,12.28,18.46,18.85c0,2.8,0,6.19-3.87,6.19H8.28
				c0,9.57,5.51,15.76,14.6,15.76c5.61,0,8.89-2.13,11.6-4.16c0.58-0.39,0.97-0.58,1.74-0.58c1.55,0,2.8,1.26,2.8,2.8
				c0,1.06-0.48,1.64-1.06,2.22c-1.45,1.45-6.48,5.41-15.08,5.41C10.02,104.31,2,97.25,2,81.01C2,66.12,9.35,57.81,21.91,57.81z
				 M21.91,63.41c-8.41,0-13.05,5.41-13.63,14.02h26C34.29,70.47,31.87,63.41,21.91,63.41z"/>
			<path style="fill:#FFFFFF;" d="M116.46,74.92v25.81c0,1.74-1.35,3.09-3.09,3.09c-1.74,0-3.1-1.35-3.1-3.09V76.17
				c0-7.64-2.71-12.86-12.08-12.86c-8.31,0-12.08,4.45-12.08,11.6v25.81c0,1.74-1.36,3.09-3.09,3.09c-1.74,0-3.1-1.35-3.1-3.09
				V76.17c0-7.64-2.42-12.86-11.89-12.86c-8.99,0-11.89,5.41-11.89,13.53v23.88c0,1.74-1.35,3.09-3.09,3.09
				c-1.74,0-3.09-1.35-3.09-3.09V61.48c0-1.74,1.35-3.09,3.09-3.09c1.74,0,3.09,1.35,3.09,3.09v3.09c1.64-3.58,6.29-6.77,12.57-6.77
				c7.93,0,13.05,2.9,15.37,6.77c2.42-3.77,6.67-6.77,14.11-6.77C113.08,57.81,116.46,66.7,116.46,74.92z"/>
			<path style="fill:#FFFFFF;" d="M132.99,68.54c-0.97,1.06-1.65,1.35-2.51,1.35c-1.55,0-2.8-1.26-2.8-2.8
				c0-0.68,0.19-1.16,0.48-1.64c2.71-4.25,7.93-7.64,16.05-7.64c11.21,0,17.4,6.57,17.4,16.43v26.58c0,1.64-1.35,3-3,3
				c-1.64,0-3-1.35-3-3v-3.48c-2.42,4.54-8.03,6.96-13.82,6.96c-10.25,0-16.72-4.93-16.72-13.82c0-8.51,6.48-13.63,16.92-13.63
				h13.63v-2.61c0-6.57-4.35-10.63-11.41-10.63C139.08,63.61,135.99,65.15,132.99,68.54z M155.61,86.32v-4.06h-13.63
				c-6.28,0-10.63,2.61-10.63,8.22c0,5.03,3.48,8.22,11.02,8.22C149.14,98.7,155.61,94.54,155.61,86.32z"/>
			<path style="fill:#FFFFFF;" d="M172.53,45.63c0-2.8,1.36-3.87,3.68-3.87s3.67,1.06,3.67,3.87c0,2.32-1.35,3.67-3.67,3.67
				S172.53,47.95,172.53,45.63z M179.3,100.73c0,1.74-1.35,3.09-3.09,3.09c-1.74,0-3.1-1.35-3.1-3.09V61.48
				c0-1.74,1.35-3.09,3.1-3.09c1.74,0,3.09,1.35,3.09,3.09V100.73z"/>
			<path style="fill:#FFFFFF;" d="M198.05,37.31v55.2c0,3.87,1.26,5.51,3.87,5.51c1.55,0,2.9,1.26,2.9,2.9c0,1.64-1.35,2.9-2.9,2.9
				c-6.48,0-10.05-3.87-10.05-11.31v-55.2c0-1.64,1.45-3.09,3.09-3.09C196.7,34.22,198.05,35.67,198.05,37.31z"/>
			<path style="fill:#FFFFFF;" d="M271.03,77.24h-38.67c-1.45,0-2.61-1.16-2.61-2.61c0-1.45,1.16-2.61,2.61-2.61h38.67
				c1.45,0,2.61,1.16,2.61,2.61C273.64,76.08,272.48,77.24,271.03,77.24z M271.03,92.03h-38.67c-1.45,0-2.61-1.16-2.61-2.61
				c0-1.45,1.16-2.61,2.61-2.61h38.67c1.45,0,2.61,1.16,2.61,2.61C273.64,90.87,272.48,92.03,271.03,92.03z"/>
		</g>
		<text transform="matrix(1 0 0 1 300.811 49.5571)"><tspan x="0" y="0" style="fill:#FFFFFF; font-family:'Palanquin'; font-size:59px;">privacy by </tspan><tspan x="268.33" y="0" style="fill:#B31B00; font-family:'Palanquin'; font-size:59px;">promise</tspan><tspan x="0" y="70.8" style="fill:#FFFFFF; font-family:'Palanquin'; font-size:59px;">invasive advertising</tspan></text>
	</g>
	<g>
		<g>
			<g>
				<g>
					<path style="fill:#FFFFFF;" d="M68.82,311.59c0-1.64,1.45-3.09,3.09-3.09c1.74,0,3.09,1.45,3.09,3.09v10.15h6.28
						c1.64,0,2.9,1.26,2.9,2.9c0,1.64-1.26,2.9-2.9,2.9H75v26.67c0,4.16,2.32,6.38,5.61,6.38c1.64,0,3,1.25,3,2.9
						c0,1.64-1.36,2.9-3,2.9c-7.64,0-11.79-5.12-11.79-12.18v-26.67h-3.77c-1.64,0-2.9-1.26-2.9-2.9c0-1.64,1.26-2.9,2.9-2.9h3.77
						V311.59z"/>
					<path style="fill:#FFFFFF;" d="M130.19,337.5v25.81c0,1.74-1.35,3.09-3.09,3.09c-1.74,0-3.09-1.35-3.09-3.09v-24.55
						c0-7.63-2.23-12.86-11.6-12.86c-9.57,0-12.85,5.8-12.85,13.53v23.87c0,1.74-1.36,3.09-3.1,3.09c-1.74,0-3.09-1.35-3.09-3.09
						V299.9c0-1.74,1.35-3.09,3.09-3.09c1.74,0,3.1,1.35,3.1,3.09v27.26c1.84-3.67,6.57-6.76,12.85-6.76
						C127.3,320.39,130.19,329.29,130.19,337.5z"/>
					<path style="fill:#FFFFFF;" d="M152.52,363.79l-16.14-38.37c-0.1-0.29-0.29-0.68-0.29-1.35c0-1.74,1.36-3.09,3.09-3.09
						c1.74,0,2.52,1.06,2.9,2.03l13.63,33.35L169.34,323c0.39-0.97,1.16-2.03,2.9-2.03s3.1,1.35,3.1,3.09c0,0.68-0.2,1.06-0.29,1.35
						L156,370.75c-3.97,9.48-8.89,14.31-18.08,14.31c-1.65,0-2.9-1.26-2.9-2.9c0-1.64,1.25-2.9,2.9-2.9
						C146.33,379.26,148.56,373.56,152.52,363.79z"/>
					<path style="fill:#FFFFFF;" d="M189.35,328.32c1.94-4.45,6.77-7.74,13.44-7.74c1.64,0,3,1.35,3,3c0,1.64-1.35,2.99-3,2.99
						c-8.89,0-13.44,6.19-13.44,15.08v21.65c0,1.74-1.35,3.09-3.09,3.09c-1.74,0-3.09-1.35-3.09-3.09v-39.24
						c0-1.74,1.35-3.09,3.09-3.09c1.74,0,3.09,1.35,3.09,3.09V328.32z"/>
					<g>
						<path style="fill:#FFFFFF;" d="M37.64,366.4c-12.69,0-23.02-10.32-23.02-23.01c0-12.69,10.32-23.02,23.02-23.02
							c10.41,0,19.56,7.01,22.24,17.06c0.4,1.5-0.49,3.03-1.99,3.43l-36.13,9.68c2.73,6.04,8.82,10.25,15.87,10.25
							c4.65,0,9.02-1.81,12.31-5.1c1.1-1.1,2.87-1.1,3.97,0c1.1,1.1,1.1,2.87,0,3.96C49.57,364.01,43.79,366.4,37.64,366.4z
							 M37.64,325.98c-9.6,0-17.41,7.81-17.41,17.41c0,0.59,0.03,1.17,0.09,1.74l33.2-8.89C50.75,330.08,44.57,325.98,37.64,325.98z
							"/>
						<path style="fill:#FFFFFF;" d="M53.59,359.34"/>
						<path style="fill:#FFFFFF;" d="M21.69,327.44"/>
						<path style="fill:#FFFFFF;" d="M23.54,322.25v-8.12c0-7.2,6.29-12.32,14.1-12.32c7.81,0,14.1,5.13,14.1,12.32v8.12
							c2.04,1.37,3.86,3.01,5.42,4.9v-13.01c0-9.96-8.7-17.33-19.52-17.33c-10.82,0-19.52,7.36-19.52,17.33v13.01
							C19.68,325.27,21.51,323.62,23.54,322.25z"/>
						<path style="fill:#FFFFFF;" d="M45.73,343.39c0,4.46-3.62,8.08-8.09,8.08c-4.46,0-8.08-3.62-8.08-8.08
							c0-4.47,3.62-8.09,8.08-8.09C42.11,335.3,45.73,338.92,45.73,343.39z"/>
					</g>
				</g>
				<path style="fill:#FFFFFF;" d="M271.03,339.82h-38.66c-1.45,0-2.61-1.16-2.61-2.61c0-1.45,1.16-2.61,2.61-2.61h38.66
					c1.45,0,2.61,1.16,2.61,2.61C273.64,338.66,272.48,339.82,271.03,339.82z M271.03,354.61h-38.66c-1.45,0-2.61-1.16-2.61-2.61
					s1.16-2.61,2.61-2.61h38.66c1.45,0,2.61,1.16,2.61,2.61S272.48,354.61,271.03,354.61z"/>
			</g>
		</g>
		<text transform="matrix(1 0 0 1 300.8115 321.2266)"><tspan x="0" y="0" style="fill:#FFFFFF; font-family:'Palanquin'; font-size:59px;">privacy from </tspan><tspan x="327.8" y="0" style="fill:#00B51A; font-family:'Palanquin'; font-size:59px;">encryption</tspan><tspan x="0" y="70.8" style="fill:#FFFFFF; font-family:'Palanquin'; font-size:59px;">data collection impossible</tspan></text>
	</g>
</g>
</svg>
