<?xml version="1.0" encoding="utf-8"?>
<!-- Generator: Adobe Illustrator 16.0.3, SVG Export Plug-In . SVG Version: 6.00 Build 0)  -->
<!DOCTYPE svg PUBLIC "-//W3C//DTD SVG 1.1//EN" "http://www.w3.org/Graphics/SVG/1.1/DTD/svg11.dtd">
<svg version="1.1" id="Layer_1" xmlns="http://www.w3.org/2000/svg" xmlns:xlink="http://www.w3.org/1999/xlink" x="0px" y="0px"
	 width="470px" height="190px" viewBox="0 0 470 190" style="enable-background:new 0 0 470 190;" xml:space="preserve">
<defs>
  <style type="text/css">@import url('https://fonts.googleapis.com/css?family=Palanquin:400,700');</style>
</defs>
<rect style="fill:#E6E6E6;" width="470" height="190"/>
<g>
	<g>
		<text transform="matrix(1 0 0 1 16.1836 28.0664)" style="fill:#929497; font-family:'Palanquin'; font-size:12.5579px;">participants</text>
		<g>
			<g>
				<path style="fill:#929497;stroke:#929497;stroke-width:0.6982;stroke-miterlimit:10;" d="M190.73,148.49
					c0,3.86-3.13,6.98-6.98,6.98H23.16c-3.86,0-6.98-3.13-6.98-6.98V39.82c0-3.86,3.13-6.98,6.98-6.98h160.58
					c3.86,0,6.98,3.13,6.98,6.98V148.49z"/>
				
					<text transform="matrix(1 0 0 1 63.0088 149.7671)" style="fill:#FFFFFF; font-family:'Palanquin'; font-size:10.1449px;">save as new group</text>
			</g>
			<path style="fill:#E6E7E8;stroke:#929497;stroke-width:0.6982;stroke-miterlimit:10;" d="M190.73,131.04
				c0,3.86-3.13,6.98-6.98,6.98H23.16c-3.86,0-6.98-3.13-6.98-6.98V39.82c0-3.86,3.13-6.98,6.98-6.98h160.58
				c3.86,0,6.98,3.13,6.98,6.98V131.04z"/>
		</g>
		<g>
			<path style="fill:#929497;" d="M33.64,43.31c-3.86,0-6.98,3.13-6.98,6.98c0,3.85,3.13,6.98,6.98,6.98c3.86,0,6.98-3.13,6.98-6.98
				C40.62,46.43,37.49,43.31,33.64,43.31z M37.28,51.44h-2.5v2.5c0,0.64-0.52,1.15-1.15,1.15s-1.15-0.52-1.15-1.15v-2.5h-2.5
				c-0.64,0-1.15-0.52-1.15-1.15c0-0.64,0.52-1.15,1.15-1.15h2.5v-2.49c0-0.64,0.52-1.15,1.15-1.15s1.15,0.52,1.15,1.15v2.49h2.5
				c0.64,0,1.15,0.52,1.15,1.15C38.44,50.93,37.92,51.44,37.28,51.44z"/>
			<path style="fill:#929497;" d="M173.27,43.31c-3.86,0-6.98,3.13-6.98,6.98c0,3.85,3.12,6.98,6.98,6.98
				c3.86,0,6.98-3.13,6.98-6.98C180.25,46.44,177.13,43.31,173.27,43.31z M176.92,51.44h-7.29c-0.64,0-1.15-0.52-1.15-1.15
				c0-0.64,0.52-1.15,1.15-1.15h7.29c0.64,0,1.15,0.52,1.15,1.15C178.07,50.93,177.56,51.44,176.92,51.44z"/>
			<path style="fill:#FFFFFF;stroke:#929497;stroke-width:0.6982;stroke-miterlimit:10;" d="M155.82,53.78
				c0,3.86-3.12,6.98-6.98,6.98H58.07c-3.86,0-6.98-3.13-6.98-6.98V46.8c0-3.86,3.12-6.98,6.98-6.98h90.76
				c3.86,0,6.98,3.13,6.98,6.98V53.78z"/>
			<text transform="matrix(1 0 0 1 86.4014 53.314)" style="fill:#BBBDBF; font-family:'Palanquin'; font-size:10.1449px;">address</text>
		</g>
		<g>
			<g>
				<path style="fill:#006BB3;" d="M33.64,67.75c-3.86,0-6.98,3.13-6.98,6.98c0,3.86,3.13,6.98,6.98,6.98
					c3.86,0,6.98-3.13,6.98-6.98C40.62,70.87,37.49,67.75,33.64,67.75z M37.28,75.88h-2.5v2.49c0,0.64-0.52,1.15-1.15,1.15
					s-1.15-0.52-1.15-1.15v-2.49h-2.5c-0.64,0-1.15-0.52-1.15-1.15c0-0.64,0.52-1.15,1.15-1.15h2.5v-2.5c0-0.64,0.52-1.15,1.15-1.15
					s1.15,0.52,1.15,1.15v2.5h2.5c0.64,0,1.15,0.52,1.15,1.15C38.44,75.36,37.92,75.88,37.28,75.88z"/>
				<path style="fill:#929497;" d="M173.27,67.75c-3.86,0-6.98,3.13-6.98,6.98c0,3.86,3.12,6.98,6.98,6.98
					c3.86,0,6.98-3.13,6.98-6.98C180.25,70.87,177.13,67.75,173.27,67.75z M176.92,75.88h-7.29c-0.64,0-1.15-0.52-1.15-1.15
					c0-0.63,0.52-1.15,1.15-1.15h7.29c0.64,0,1.15,0.52,1.15,1.15C178.07,75.36,177.56,75.88,176.92,75.88z"/>
				<text transform="matrix(1 0 0 1 61.6846 77.75)" style="fill:#006BB3; font-family:'Palanquin'; font-size:10.1449px;">Work - IP attorneys</text>
			</g>
			<g>
				<path style="fill:#929497;" d="M33.64,120.11c-3.86,0-6.98,3.13-6.98,6.98c0,3.86,3.13,6.98,6.98,6.98
					c3.86,0,6.98-3.13,6.98-6.98C40.62,123.24,37.49,120.11,33.64,120.11z M37.28,128.24h-2.5v2.49c0,0.64-0.52,1.15-1.15,1.15
					s-1.15-0.51-1.15-1.15v-2.49h-2.5c-0.64,0-1.15-0.52-1.15-1.15c0-0.64,0.52-1.15,1.15-1.15h2.5v-2.49
					c0-0.64,0.52-1.15,1.15-1.15s1.15,0.52,1.15,1.15v2.49h2.5c0.64,0,1.15,0.52,1.15,1.15C38.44,127.73,37.92,128.24,37.28,128.24z
					"/>
				<path style="fill:#B31B00;" d="M173.27,120.11c-3.86,0-6.98,3.13-6.98,6.98c0,3.86,3.12,6.98,6.98,6.98
					c3.86,0,6.98-3.13,6.98-6.98C180.25,123.24,177.13,120.11,173.27,120.11z M176.92,128.24h-7.29c-0.64,0-1.15-0.52-1.15-1.15
					c0-0.64,0.52-1.15,1.15-1.15h7.29c0.64,0,1.15,0.52,1.15,1.15C178.07,127.73,177.56,128.24,176.92,128.24z"/>
				
					<text transform="matrix(1 0 0 1 79.6201 130.1133)" style="fill:#B31B00; font-family:'Palanquin'; font-size:10.1449px;">Jesse Darzi</text>
			</g>
			<g>
				<path style="fill:#006BB3;" d="M33.64,102.65c-3.86,0-6.98,3.13-6.98,6.98c0,3.86,3.13,6.98,6.98,6.98
					c3.86,0,6.98-3.12,6.98-6.98C40.62,105.78,37.49,102.65,33.64,102.65z M37.28,110.79h-2.5v2.5c0,0.64-0.52,1.15-1.15,1.15
					s-1.15-0.52-1.15-1.15v-2.5h-2.5c-0.64,0-1.15-0.52-1.15-1.15c0-0.64,0.52-1.15,1.15-1.15h2.5v-2.5c0-0.64,0.52-1.15,1.15-1.15
					s1.15,0.51,1.15,1.15v2.5h2.5c0.64,0,1.15,0.52,1.15,1.15C38.44,110.27,37.92,110.79,37.28,110.79z"/>
				<path style="fill:#929497;" d="M173.27,102.65c-3.86,0-6.98,3.13-6.98,6.98c0,3.86,3.12,6.98,6.98,6.98
					c3.86,0,6.98-3.12,6.98-6.98C180.25,105.78,177.13,102.65,173.27,102.65z M176.92,110.79h-7.29c-0.64,0-1.15-0.52-1.15-1.15
					c0-0.63,0.52-1.15,1.15-1.15h7.29c0.64,0,1.15,0.52,1.15,1.15C178.07,110.27,177.56,110.79,176.92,110.79z"/>
				
					<text transform="matrix(1 0 0 1 75.1162 112.6597)" style="fill:#006BB3; font-family:'Palanquin'; font-size:10.1449px;">Mathias Lusk</text>
			</g>
			<g>
				<path style="fill:#006BB3;" d="M33.64,85.2c-3.86,0-6.98,3.13-6.98,6.98c0,3.86,3.13,6.98,6.98,6.98c3.86,0,6.98-3.13,6.98-6.98
					C40.62,88.33,37.49,85.2,33.64,85.2z M37.28,93.33h-2.5v2.49c0,0.64-0.52,1.15-1.15,1.15s-1.15-0.52-1.15-1.15v-2.49h-2.5
					c-0.64,0-1.15-0.52-1.15-1.15c0-0.64,0.52-1.15,1.15-1.15h2.5v-2.49c0-0.64,0.52-1.15,1.15-1.15s1.15,0.52,1.15,1.15v2.49h2.5
					c0.64,0,1.15,0.52,1.15,1.15C38.44,92.82,37.92,93.33,37.28,93.33z"/>
				<path style="fill:#929497;" d="M173.27,85.2c-3.86,0-6.98,3.13-6.98,6.98c0,3.86,3.12,6.98,6.98,6.98
					c3.86,0,6.98-3.13,6.98-6.98C180.25,88.33,177.13,85.2,173.27,85.2z M176.92,93.33h-7.29c-0.64,0-1.15-0.52-1.15-1.15
					c0-0.64,0.52-1.15,1.15-1.15h7.29c0.64,0,1.15,0.52,1.15,1.15C178.07,92.82,177.56,93.33,176.92,93.33z"/>
				<text transform="matrix(1 0 0 1 62.5918 95.2056)" style="fill:#006BB3; font-family:'Palanquin'; font-size:10.1449px;">Hannah Robertson</text>
			</g>
		</g>
		<rect x="16.18" y="15.38" style="fill:none;" width="174.55" height="17.45"/>
	</g>
</g>
<g>
	<path style="fill:#949494;" d="M232.62,5h230.4c3.86,0,6.98,3.04,6.98,6.89V0H208v190h18V11.89C226,8.04,228.76,5,232.62,5z"/>
</g>
<g>
	<g>
		<line style="fill:none;stroke:#C5C7C9;stroke-width:1.3964;stroke-miterlimit:10;" x1="225.63" y1="53.78" x2="470" y2="53.78"/>
		<g>
			<text transform="matrix(1 0 0 1 312.9092 34.3359)" style="fill:#404041; font-family:'Palanquin'; font-size:16.7563px;">search</text>
			<g>
				<path style="fill:#929497;" d="M267.89,37.95l-3.24-5.58h3.78c1.67,0,3.02-1.35,3.02-3.03c0-1.67-1.35-3.02-3.02-3.02h-3.78
					l3.24-5.58l-11.58,4.73l2.75-4.73L238,29.35l21.06,8.6l-2.75-4.73L267.89,37.95z"/>
				<path style="fill:#929497;" d="M276.11,35.45V23.24c0-1.32-1.07-2.38-2.38-2.38c-1.32,0-2.38,1.07-2.38,2.38v2.86
					c0.89,0.8,1.44,1.96,1.44,3.25c0,1.29-0.56,2.44-1.44,3.24v2.86c0,1.31,1.07,2.38,2.38,2.38
					C275.04,37.84,276.11,36.77,276.11,35.45z"/>
			</g>
		</g>
		
			<line style="fill:none;stroke:#C5C7C9;stroke-width:1.3964;stroke-miterlimit:10;" x1="225.63" y1="102.65" x2="470" y2="102.65"/>
		<g>
			<text transform="matrix(1 0 0 1 312.9092 83.2095)" style="fill:#404041; font-family:'Palanquin'; font-size:16.7563px;">recipient groups</text>
			<g>
				<path style="fill:#929497;" d="M267.89,86.82l-3.24-5.58h3.78c1.67,0,3.02-1.35,3.02-3.03c0-1.67-1.35-3.02-3.02-3.02h-3.78
					l3.24-5.58l-11.58,4.73l2.75-4.73L238,78.22l21.06,8.6l-2.75-4.73L267.89,86.82z"/>
				<path style="fill:#929497;" d="M276.11,84.33V72.11c0-1.32-1.07-2.38-2.38-2.38c-1.32,0-2.38,1.06-2.38,2.38v2.86
					c0.89,0.8,1.44,1.96,1.44,3.24c0,1.29-0.56,2.45-1.44,3.24v2.87c0,1.32,1.07,2.38,2.38,2.38
					C275.04,86.71,276.11,85.64,276.11,84.33z"/>
			</g>
		</g>
		
			<line style="fill:none;stroke:#C5C7C9;stroke-width:1.3964;stroke-miterlimit:10;" x1="225.63" y1="151.53" x2="470" y2="151.53"/>
		<g>
			
				<text transform="matrix(1 0 0 1 312.9092 132.0815)" style="fill:#404041; font-family:'Palanquin'; font-size:16.7563px;">volume adjustments</text>
			<g>
				<path style="fill:#929497;" d="M267.89,135.69l-3.24-5.58h3.78c1.67,0,3.02-1.35,3.02-3.02c0-1.67-1.35-3.02-3.02-3.02h-3.78
					l3.24-5.58l-11.58,4.73l2.75-4.73L238,127.09l21.06,8.6l-2.75-4.73L267.89,135.69z"/>
				<path style="fill:#929497;" d="M276.11,133.2v-12.22c0-1.32-1.07-2.38-2.38-2.38c-1.32,0-2.38,1.07-2.38,2.38v2.86
					c0.89,0.8,1.44,1.96,1.44,3.24c0,1.29-0.56,2.45-1.44,3.24v2.87c0,1.31,1.07,2.38,2.38,2.38
					C275.04,135.58,276.11,134.51,276.11,133.2z"/>
			</g>
		</g>
		<g>
			
				<text transform="matrix(1 0 0 1 312.9092 180.9546)" style="fill:#404041; font-family:'Palanquin'; font-size:16.7563px;">extensions</text>
			<g>
				<path style="fill:#929497;" d="M267.89,184.57l-3.24-5.58h3.78c1.67,0,3.02-1.35,3.02-3.02c0-1.67-1.35-3.02-3.02-3.02h-3.78
					l3.24-5.58l-11.58,4.73l2.75-4.73l-21.06,8.6l21.06,8.6l-2.75-4.73L267.89,184.57z"/>
				<path style="fill:#929497;" d="M276.11,182.07v-12.22c0-1.31-1.07-2.38-2.38-2.38c-1.32,0-2.38,1.07-2.38,2.38v2.86
					c0.89,0.8,1.44,1.96,1.44,3.24c0,1.29-0.56,2.44-1.44,3.24v2.86c0,1.31,1.07,2.38,2.38,2.38
					C275.04,184.45,276.11,183.39,276.11,182.07z"/>
			</g>
		</g>
	</g>
</g>
</svg>
