<?xml version="1.0" encoding="utf-8"?>
<!-- Generator: Adobe Illustrator 16.0.3, SVG Export Plug-In . SVG Version: 6.00 Build 0)  -->
<!DOCTYPE svg PUBLIC "-//W3C//DTD SVG 1.1//EN" "http://www.w3.org/Graphics/SVG/1.1/DTD/svg11.dtd">
<svg version="1.1" id="Layer_1" xmlns="http://www.w3.org/2000/svg" xmlns:xlink="http://www.w3.org/1999/xlink" x="0px" y="0px"
	 width="825px" height="210px" viewBox="0 0 825 210" style="enable-background:new 0 0 825 210;" xml:space="preserve">
<defs>
  <style type="text/css">@import url('https://fonts.googleapis.com/css?family=Palanquin:400,700');</style>
</defs>
<rect style="fill:#E6E6E6;" width="825" height="210"/>
<g>
	<g>
		<rect y="60" style="fill:none;" width="825" height="55"/>
		<g>
			<g>
				<path style="fill:#FFFFFF;stroke:#C5C7C9;stroke-miterlimit:10;" d="M825,105c0,5.52-4.48,10-10,10H10c-5.52,0-10-4.48-10-10V90
					c0-5.52,4.48-10,10-10h805c5.52,0,10,4.48,10,10V105z"/>
				<path style="fill:#C5C7C9;" d="M50,115H10c-5.52,0-10-4.48-10-10V90c0-5.52,4.48-10,10-10h40V115z"/>
			</g>
			<rect x="60.3" y="90.9" style="fill:none;" width="650" height="15.2"/>
			<text transform="matrix(1 0 0 1 60.2954 102.1797)" style="fill:#404041; font-family:'Palanquin'; font-size:16px;">All right, kids. Back to the Orphanarium. You can slide around the gym in your socks.</text>
		</g>
		<g>
			<text transform="matrix(1 0 0 1 60 75.6265)" style="fill:#006BB3; font-family:'Palanquin'; font-size:14px;">@johnnybegood</text>
		</g>
	</g>
	<g>
		<rect style="fill:none;" width="825" height="55"/>
		<g>
			<g>
				<path style="fill:#FFFFFF;stroke:#C5C7C9;stroke-miterlimit:10;" d="M825,45c0,5.52-4.48,10-10,10H10C4.48,55,0,50.52,0,45V30
					c0-5.52,4.48-10,10-10h805c5.52,0,10,4.48,10,10V45z"/>
				<path style="fill:#C5C7C9;" d="M50,55H10C4.48,55,0,50.52,0,45V30c0-5.52,4.48-10,10-10h40V55z"/>
			</g>
			<rect x="60.3" y="30.9" style="fill:none;" width="650" height="15.2"/>
			<text transform="matrix(1 0 0 1 60.2954 42.1797)" style="fill:#404041; font-family:'Palanquin'; font-size:16px;">Poor Albert. It&apos;s been so long since Food Day.</text>
		</g>
	</g>
	<g>
		<rect y="120" style="fill:none;" width="825" height="55"/>
		<g>
			<g>
				<path style="fill:#FFFFFF;stroke:#C5C7C9;stroke-miterlimit:10;" d="M825,165c0,5.52-4.48,10-10,10H10c-5.52,0-10-4.48-10-10
					v-15c0-5.52,4.48-10,10-10h805c5.52,0,10,4.48,10,10V165z"/>
				<path style="fill:#C5C7C9;" d="M50,175H10c-5.52,0-10-4.48-10-10v-15c0-5.52,4.48-10,10-10h40V175z"/>
			</g>
			<rect x="60.3" y="150.9" style="fill:none;" width="650" height="15.2"/>
			<text transform="matrix(1 0 0 1 60.2954 162.1797)" style="fill:#404041; font-family:'Palanquin'; font-size:16px;">What socks?</text>
		</g>
		<g>
			<text transform="matrix(1 0 0 1 60 135.6265)" style="fill:#006BB3; font-family:'Palanquin'; font-size:14px;">@joejoebee</text>
		</g>
	</g>
</g>
<g>
	<g>
		<radialGradient id="SVGID_1_" cx="91.9526" cy="129.0752" r="80.7935" gradientUnits="userSpaceOnUse">
			<stop  offset="0.5" style="stop-color:#D0D2D3"/>
			<stop  offset="1" style="stop-color:#929497"/>
		</radialGradient>
		<path style="fill:url(#SVGID_1_);stroke:#404040;stroke-width:1.4051;stroke-miterlimit:10;" d="M91.95,48.28
			c-44.62,0-80.79,36.17-80.79,80.79c0,44.62,36.17,80.79,80.79,80.79c44.62,0,80.79-36.17,80.79-80.79
			C172.75,84.45,136.57,48.28,91.95,48.28z M91.95,157.18c-15.52,0-28.1-12.58-28.1-28.1c0-15.52,12.58-28.1,28.1-28.1
			s28.1,12.58,28.1,28.1C120.05,144.6,107.47,157.18,91.95,157.18z"/>
		
			<line style="fill:none;stroke:#404040;stroke-width:1.4051;stroke-miterlimit:10;" x1="111.82" y1="109.2" x2="149.08" y2="71.95"/>
		
			<line style="fill:none;stroke:#404040;stroke-width:1.4051;stroke-miterlimit:10;" x1="111.82" y1="148.95" x2="149.08" y2="186.21"/>
		
			<line style="fill:none;stroke:#404040;stroke-width:1.4051;stroke-miterlimit:10;" x1="72.22" y1="148.8" x2="34.82" y2="186.21"/>
		
			<line style="opacity:0.2;fill:none;stroke:#404040;stroke-width:1.4051;stroke-miterlimit:10;" x1="72.17" y1="109.29" x2="34.82" y2="71.95"/>
		<g>
			<path style="fill:#404041;" d="M163.81,141.72l-6.39-11.76l-0.5,3.16c-2.01-1.6-3.95-3-6.38-4.04c2.43-1.04,4.37-2.44,6.38-4.04
				l0.51,3.16l6.39-11.76l-12.79,3.92l2.97,1.12c-4.77,3.81-7.77,5.28-20.48,5.3c0.44,0.66,0.7,1.45,0.7,2.31
				c0,0.85-0.26,1.65-0.7,2.31c12.71,0.02,15.71,1.49,20.48,5.3l-2.97,1.12L163.81,141.72z"/>
			<circle style="fill:#404041;" cx="130.03" cy="129.07" r="3.15"/>
		</g>
		<g>
			<circle style="fill:#404041;" cx="79.56" cy="182.47" r="3.09"/>
			<circle style="fill:#404041;" cx="104.34" cy="182.47" r="3.09"/>
			<circle style="fill:#404041;" cx="91.95" cy="182.47" r="3.09"/>
		</g>
		<path style="fill:#404041;" d="M91.95,63.04c-6.98,0-12.65,5.66-12.65,12.65c0,6.98,5.66,12.65,12.65,12.65
			s12.65-5.66,12.65-12.65C104.6,68.7,98.94,63.04,91.95,63.04z M98.56,77.77h-4.52v4.52c0,1.15-0.93,2.09-2.09,2.09
			s-2.09-0.93-2.09-2.09v-4.52h-4.52c-1.15,0-2.09-0.93-2.09-2.09s0.93-2.09,2.09-2.09h4.52v-4.52c0-1.15,0.93-2.09,2.09-2.09
			s2.09,0.94,2.09,2.09v4.52h4.52c1.15,0,2.09,0.93,2.09,2.09S99.71,77.77,98.56,77.77z"/>
		<path style="fill:#B31B00;" d="M38.56,116.43c-6.98,0-12.65,5.66-12.65,12.65s5.66,12.65,12.65,12.65
			c6.98,0,12.65-5.66,12.65-12.65S45.54,116.43,38.56,116.43z M45.17,131.16H31.95c-1.15,0-2.09-0.94-2.09-2.09s0.93-2.09,2.09-2.09
			h13.21c1.15,0,2.09,0.93,2.09,2.09S46.32,131.16,45.17,131.16z"/>
		<text transform="matrix(1 0 0 1 46.6494 98.1055)" style="fill:#B31B00; font-family:'Palanquin'; font-size:25.2917;">5</text>
	</g>
	<g>
		<polygon points="110.17,153 87,129.07 87,162.93 94.43,155.38 98,164.17 103.49,161.66 99.75,153 		"/>
		<polygon style="fill:#FFFFFF;" points="106.46,151 88,132 88,159.01 94.79,152.51 98.84,161.93 101.51,160.69 97.52,151 		"/>
	</g>
</g>
</svg>
